<svg id="svg" version="1.1" xmlns="http://www.w3.org/2000/svg" xmlns:xlink="http://www.w3.org/1999/xlink" width="400" height="400" viewBox="0, 0, 400,400"><g id="svgg"><path id="path0" d="M84.600 32.400 C 84.464 32.620,82.923 32.800,81.176 32.800 C 79.325 32.800,78.000 32.967,78.000 33.200 C 78.000 33.420,77.111 33.600,76.024 33.600 C 74.937 33.600,73.936 33.780,73.800 34.000 C 73.664 34.220,73.124 34.400,72.600 34.400 C 72.076 34.400,71.536 34.580,71.400 34.800 C 71.264 35.020,70.809 35.200,70.389 35.200 C 69.968 35.200,68.983 35.560,68.200 36.000 C 67.417 36.440,66.558 36.800,66.291 36.800 C 65.455 36.800,60.145 39.577,59.393 40.407 C 58.999 40.843,58.462 41.200,58.200 41.200 C 57.938 41.200,57.398 41.560,57.000 42.000 C 56.602 42.440,56.079 42.801,55.838 42.802 C 55.597 42.803,54.825 43.343,54.122 44.002 C 53.419 44.661,52.643 45.200,52.399 45.200 C 51.752 45.200,44.400 52.764,44.400 53.430 C 44.400 53.740,44.040 54.218,43.600 54.493 C 43.160 54.768,42.800 55.281,42.800 55.634 C 42.800 55.987,42.440 56.602,42.000 57.000 C 41.560 57.398,41.200 57.938,41.200 58.200 C 41.200 58.462,40.847 58.995,40.416 59.385 C 39.496 60.218,35.200 68.696,35.200 69.679 C 35.200 70.050,35.020 70.464,34.800 70.600 C 34.580 70.736,34.400 71.456,34.400 72.200 C 34.400 72.944,34.220 73.664,34.000 73.800 C 33.780 73.936,33.600 74.656,33.600 75.400 C 33.600 76.144,33.420 76.864,33.200 77.000 C 32.980 77.136,32.800 78.317,32.800 79.624 C 32.800 80.941,32.622 82.000,32.400 82.000 C 31.860 82.000,31.860 94.666,32.400 95.000 C 32.620 95.136,32.800 96.317,32.800 97.624 C 32.800 98.941,32.978 100.000,33.200 100.000 C 33.420 100.000,33.600 100.720,33.600 101.600 C 33.600 102.480,33.780 103.200,34.000 103.200 C 34.220 103.200,34.400 103.729,34.400 104.376 C 34.400 105.023,34.580 105.664,34.800 105.800 C 35.020 105.936,35.200 106.476,35.200 107.000 C 35.200 107.524,35.380 108.064,35.600 108.200 C 35.820 108.336,36.000 108.750,36.000 109.121 C 36.000 110.103,39.490 116.976,40.413 117.812 C 40.846 118.203,41.200 118.738,41.200 119.000 C 41.200 119.262,41.560 119.802,42.000 120.200 C 42.440 120.598,42.800 121.132,42.800 121.387 C 42.800 121.642,43.340 122.368,44.000 123.000 C 44.660 123.632,45.200 124.346,45.200 124.586 C 45.200 125.134,50.477 130.400,51.027 130.400 C 51.250 130.400,52.236 131.221,53.217 132.224 C 54.198 133.228,55.630 134.338,56.400 134.691 C 57.170 135.045,58.104 135.592,58.475 135.906 C 59.512 136.785,67.684 140.800,68.436 140.800 C 68.803 140.800,69.326 141.070,69.600 141.400 C 69.874 141.730,70.515 142.000,71.025 142.000 C 71.535 142.000,72.064 142.180,72.200 142.400 C 72.336 142.620,72.876 142.800,73.400 142.800 C 73.924 142.800,74.464 142.980,74.600 143.200 C 74.736 143.420,75.906 143.600,77.200 143.600 C 78.494 143.600,79.664 143.780,79.800 144.000 C 80.134 144.541,97.066 144.541,97.400 144.000 C 97.536 143.780,98.436 143.600,99.400 143.600 C 100.364 143.600,101.264 143.420,101.400 143.200 C 101.536 142.980,102.256 142.800,103.000 142.800 C 103.744 142.800,104.464 142.620,104.600 142.400 C 104.736 142.180,105.357 142.000,105.981 142.000 C 106.619 142.000,107.215 141.738,107.345 141.400 C 107.471 141.070,107.930 140.800,108.364 140.800 C 108.798 140.800,109.264 140.620,109.400 140.400 C 109.536 140.180,110.087 140.000,110.624 140.000 C 111.161 140.000,111.600 139.820,111.600 139.600 C 111.600 139.380,111.842 139.200,112.139 139.200 C 112.827 139.200,115.112 138.066,115.416 137.574 C 115.544 137.367,116.418 136.847,117.359 136.419 C 118.300 135.990,119.301 135.361,119.584 135.020 C 119.866 134.679,120.312 134.400,120.574 134.400 C 120.836 134.400,121.568 133.860,122.200 133.200 C 122.832 132.540,123.544 132.000,123.782 132.000 C 124.337 132.000,132.000 124.323,132.000 123.768 C 132.000 123.538,132.540 122.832,133.200 122.200 C 133.860 121.568,134.400 120.836,134.400 120.574 C 134.400 120.312,134.657 119.885,134.971 119.624 C 135.801 118.935,140.800 108.749,140.800 107.747 C 140.800 107.280,141.070 106.674,141.400 106.400 C 141.730 106.126,142.000 105.485,142.000 104.975 C 142.000 104.465,142.180 103.936,142.400 103.800 C 142.620 103.664,142.800 102.944,142.800 102.200 C 142.800 101.456,142.980 100.736,143.200 100.600 C 143.420 100.464,143.600 99.384,143.600 98.200 C 143.600 97.016,143.780 95.936,144.000 95.800 C 144.242 95.651,144.400 92.804,144.400 88.600 C 144.400 84.396,144.242 81.549,144.000 81.400 C 143.780 81.264,143.600 80.184,143.600 79.000 C 143.600 77.816,143.420 76.736,143.200 76.600 C 142.980 76.464,142.800 75.654,142.800 74.800 C 142.800 73.946,142.620 73.136,142.400 73.000 C 142.180 72.864,142.000 72.335,142.000 71.825 C 142.000 71.315,141.730 70.674,141.400 70.400 C 141.070 70.126,140.800 69.485,140.800 68.975 C 140.800 68.465,140.620 67.936,140.400 67.800 C 140.180 67.664,140.000 67.234,140.000 66.844 C 140.000 66.050,138.398 62.726,137.512 61.681 C 137.194 61.306,136.637 60.350,136.274 59.555 C 135.912 58.760,135.341 57.883,135.007 57.606 C 134.673 57.329,134.400 56.888,134.400 56.626 C 134.400 56.364,133.860 55.632,133.200 55.000 C 132.540 54.368,132.000 53.656,132.000 53.418 C 132.000 52.864,123.524 44.400,122.968 44.400 C 122.738 44.400,122.032 43.860,121.400 43.200 C 120.768 42.540,120.073 42.000,119.857 42.000 C 119.640 42.000,119.133 41.701,118.729 41.336 C 117.868 40.557,117.379 40.278,112.597 37.838 C 110.615 36.827,108.691 36.000,108.321 36.000 C 107.950 36.000,107.536 35.820,107.400 35.600 C 107.264 35.380,106.724 35.200,106.200 35.200 C 105.676 35.200,105.136 35.020,105.000 34.800 C 104.864 34.580,104.223 34.400,103.576 34.400 C 102.929 34.400,102.400 34.220,102.400 34.000 C 102.400 33.780,101.500 33.600,100.400 33.600 C 99.300 33.600,98.400 33.420,98.400 33.200 C 98.400 32.967,97.075 32.800,95.224 32.800 C 93.477 32.800,91.936 32.620,91.800 32.400 C 91.664 32.180,90.044 32.000,88.200 32.000 C 86.356 32.000,84.736 32.180,84.600 32.400 M195.000 149.600 C 194.864 149.820,193.424 150.000,191.800 150.000 C 190.176 150.000,188.736 150.180,188.600 150.400 C 188.464 150.620,187.564 150.800,186.600 150.800 C 185.636 150.800,184.736 150.980,184.600 151.200 C 184.464 151.420,183.924 151.600,183.400 151.600 C 182.876 151.600,182.336 151.780,182.200 152.000 C 182.064 152.220,181.524 152.400,181.000 152.400 C 180.476 152.400,179.936 152.580,179.800 152.800 C 179.664 153.020,179.203 153.200,178.776 153.200 C 178.349 153.200,178.000 153.380,178.000 153.600 C 178.000 153.820,177.638 154.000,177.195 154.000 C 176.752 154.000,176.077 154.165,175.695 154.366 C 175.313 154.568,174.370 155.031,173.600 155.396 C 171.525 156.378,170.491 156.994,169.671 157.736 C 169.267 158.101,168.754 158.400,168.530 158.400 C 168.307 158.400,167.798 158.760,167.400 159.200 C 167.002 159.640,166.514 160.000,166.316 160.000 C 166.118 160.000,165.381 160.539,164.678 161.198 C 163.975 161.857,163.217 162.397,162.992 162.398 C 162.446 162.401,154.800 170.097,154.800 170.645 C 154.800 170.882,154.440 171.402,154.000 171.800 C 153.560 172.198,153.200 172.738,153.200 173.000 C 153.200 173.262,152.840 173.802,152.400 174.200 C 151.960 174.598,151.600 175.144,151.600 175.413 C 151.600 175.682,151.334 176.123,151.008 176.393 C 150.307 176.976,149.200 179.098,149.200 179.861 C 149.200 180.158,149.020 180.400,148.800 180.400 C 148.580 180.400,148.400 180.760,148.400 181.200 C 148.400 181.640,148.220 182.000,148.000 182.000 C 147.780 182.000,147.600 182.360,147.600 182.800 C 147.600 183.240,147.420 183.600,147.200 183.600 C 146.980 183.600,146.800 183.960,146.800 184.400 C 146.800 184.840,146.620 185.200,146.400 185.200 C 146.180 185.200,146.000 185.729,146.000 186.376 C 146.000 187.023,145.820 187.664,145.600 187.800 C 145.380 187.936,145.200 188.656,145.200 189.400 C 145.200 190.144,145.020 190.864,144.800 191.000 C 144.580 191.136,144.400 191.856,144.400 192.600 C 144.400 193.344,144.220 194.064,144.000 194.200 C 143.780 194.336,143.600 195.416,143.600 196.600 C 143.600 197.784,143.420 198.864,143.200 199.000 C 142.960 199.149,142.800 201.863,142.800 205.800 C 142.800 209.737,142.960 212.451,143.200 212.600 C 143.420 212.736,143.600 213.816,143.600 215.000 C 143.600 216.184,143.780 217.264,144.000 217.400 C 144.220 217.536,144.400 218.256,144.400 219.000 C 144.400 219.744,144.580 220.464,144.800 220.600 C 145.020 220.736,145.200 221.276,145.200 221.800 C 145.200 222.324,145.380 222.864,145.600 223.000 C 145.820 223.136,146.000 223.676,146.000 224.200 C 146.000 224.724,146.180 225.264,146.400 225.400 C 146.620 225.536,146.800 226.076,146.800 226.600 C 146.800 227.124,146.980 227.664,147.200 227.800 C 147.420 227.936,147.600 228.397,147.600 228.824 C 147.600 229.251,147.735 229.601,147.900 229.603 C 148.259 229.607,149.200 231.544,149.200 232.280 C 149.200 232.566,149.380 232.800,149.600 232.800 C 149.820 232.800,150.000 233.120,150.000 233.512 C 150.000 233.903,150.360 234.483,150.800 234.800 C 151.240 235.117,151.600 235.697,151.600 236.088 C 151.600 236.480,151.750 236.800,151.932 236.800 C 152.115 236.800,152.520 237.295,152.832 237.900 C 153.145 238.505,153.894 239.540,154.498 240.200 C 155.102 240.860,155.600 241.580,155.605 241.800 C 155.618 242.360,161.024 247.600,161.589 247.600 C 161.844 247.600,162.929 248.500,164.000 249.600 C 165.071 250.700,166.230 251.600,166.574 251.600 C 166.918 251.600,167.200 251.780,167.200 252.000 C 167.200 252.220,167.520 252.400,167.912 252.400 C 168.303 252.400,168.883 252.760,169.200 253.200 C 169.517 253.640,170.097 254.000,170.488 254.000 C 170.880 254.000,171.200 254.180,171.200 254.400 C 171.200 254.620,171.445 254.800,171.745 254.800 C 172.044 254.800,173.689 255.520,175.400 256.400 C 177.111 257.280,178.824 258.000,179.206 258.000 C 179.589 258.000,180.126 258.270,180.400 258.600 C 180.674 258.930,181.315 259.200,181.825 259.200 C 182.335 259.200,182.864 259.380,183.000 259.600 C 183.136 259.820,183.676 260.000,184.200 260.000 C 184.724 260.000,185.264 260.180,185.400 260.400 C 185.536 260.620,186.616 260.800,187.800 260.800 C 188.984 260.800,190.064 260.980,190.200 261.200 C 190.353 261.447,193.796 261.600,199.200 261.600 C 204.604 261.600,208.047 261.447,208.200 261.200 C 208.336 260.980,209.236 260.800,210.200 260.800 C 211.164 260.800,212.064 260.620,212.200 260.400 C 212.336 260.180,213.056 260.000,213.800 260.000 C 214.544 260.000,215.264 259.820,215.400 259.600 C 215.536 259.380,216.076 259.200,216.600 259.200 C 217.124 259.200,217.657 259.031,217.784 258.825 C 218.076 258.354,220.362 257.200,221.005 257.200 C 221.728 257.200,226.400 254.717,226.400 254.333 C 226.400 254.150,226.760 254.000,227.200 254.000 C 227.640 254.000,228.000 253.820,228.000 253.600 C 228.000 253.380,228.320 253.200,228.712 253.200 C 229.103 253.200,229.683 252.840,230.000 252.400 C 230.317 251.960,230.825 251.600,231.128 251.600 C 231.431 251.600,232.183 251.060,232.800 250.400 C 233.417 249.740,234.120 249.200,234.363 249.200 C 234.928 249.200,242.800 241.488,242.800 240.934 C 242.800 240.706,243.340 239.954,244.000 239.263 C 244.660 238.572,245.200 237.775,245.200 237.492 C 245.200 237.209,245.560 236.717,246.000 236.400 C 246.440 236.083,246.800 235.503,246.800 235.112 C 246.800 234.720,246.980 234.400,247.200 234.400 C 247.420 234.400,247.600 234.040,247.600 233.600 C 247.600 233.160,247.780 232.800,248.000 232.800 C 248.220 232.800,248.400 232.555,248.400 232.255 C 248.400 231.956,249.120 230.311,250.000 228.600 C 250.880 226.889,251.600 225.165,251.600 224.768 C 251.600 224.372,251.780 223.936,252.000 223.800 C 252.220 223.664,252.400 223.124,252.400 222.600 C 252.400 222.076,252.580 221.536,252.800 221.400 C 253.020 221.264,253.200 220.544,253.200 219.800 C 253.200 219.056,253.380 218.336,253.600 218.200 C 253.820 218.064,254.000 216.984,254.000 215.800 C 254.000 214.616,254.180 213.536,254.400 213.400 C 254.643 213.250,254.800 210.270,254.800 205.800 C 254.800 201.330,254.643 198.350,254.400 198.200 C 254.180 198.064,254.000 196.984,254.000 195.800 C 254.000 194.616,253.820 193.536,253.600 193.400 C 253.380 193.264,253.200 192.544,253.200 191.800 C 253.200 191.056,253.020 190.336,252.800 190.200 C 252.580 190.064,252.400 189.524,252.400 189.000 C 252.400 188.476,252.220 187.936,252.000 187.800 C 251.780 187.664,251.600 187.023,251.600 186.376 C 251.600 185.729,251.420 185.200,251.200 185.200 C 250.980 185.200,250.800 184.660,250.800 184.000 C 250.800 183.340,250.620 182.800,250.400 182.800 C 250.180 182.800,250.000 182.440,250.000 182.000 C 250.000 181.560,249.820 181.200,249.600 181.200 C 249.380 181.200,249.200 180.880,249.200 180.488 C 249.200 180.097,248.840 179.517,248.400 179.200 C 247.960 178.883,247.600 178.421,247.600 178.173 C 247.600 177.483,246.456 175.344,245.792 174.793 C 245.466 174.523,245.200 174.088,245.200 173.826 C 245.200 173.564,244.660 172.832,244.000 172.200 C 243.340 171.568,242.800 170.852,242.800 170.609 C 242.800 170.067,234.287 161.600,233.742 161.600 C 233.526 161.600,232.832 161.060,232.200 160.400 C 231.568 159.740,230.836 159.200,230.574 159.200 C 230.312 159.200,229.866 158.921,229.584 158.580 C 229.301 158.239,228.334 157.600,227.435 157.159 C 226.536 156.719,225.170 156.022,224.400 155.611 C 223.630 155.200,222.415 154.625,221.700 154.334 C 220.985 154.043,220.400 153.669,220.400 153.502 C 220.400 153.336,219.871 153.200,219.224 153.200 C 218.577 153.200,217.936 153.020,217.800 152.800 C 217.664 152.580,217.124 152.400,216.600 152.400 C 216.076 152.400,215.536 152.220,215.400 152.000 C 215.264 151.780,214.724 151.600,214.200 151.600 C 213.676 151.600,213.136 151.420,213.000 151.200 C 212.864 150.980,211.964 150.800,211.000 150.800 C 210.036 150.800,209.136 150.620,209.000 150.400 C 208.864 150.180,207.424 150.000,205.800 150.000 C 204.176 150.000,202.736 149.820,202.600 149.600 C 202.464 149.380,200.754 149.200,198.800 149.200 C 196.846 149.200,195.136 149.380,195.000 149.600 M313.200 265.200 C 313.200 265.433,311.875 265.600,310.024 265.600 C 308.277 265.600,306.736 265.780,306.600 266.000 C 306.464 266.220,305.564 266.400,304.600 266.400 C 303.636 266.400,302.736 266.580,302.600 266.800 C 302.464 267.020,301.924 267.200,301.400 267.200 C 300.876 267.200,300.336 267.380,300.200 267.600 C 300.064 267.820,299.423 268.000,298.776 268.000 C 298.129 268.000,297.599 268.135,297.597 268.300 C 297.592 268.747,295.574 269.600,294.520 269.600 C 294.014 269.600,293.600 269.780,293.600 270.000 C 293.600 270.220,293.240 270.400,292.800 270.400 C 292.360 270.400,292.000 270.580,292.000 270.800 C 292.000 271.020,291.758 271.200,291.461 271.200 C 290.632 271.200,288.612 272.303,287.803 273.197 C 287.403 273.639,286.862 274.000,286.600 274.000 C 286.338 274.000,285.798 274.360,285.400 274.800 C 285.002 275.240,284.468 275.600,284.213 275.600 C 283.958 275.600,283.232 276.140,282.600 276.800 C 281.968 277.460,281.275 278.000,281.062 278.000 C 280.515 278.000,273.200 285.270,273.200 285.814 C 273.200 286.060,272.750 286.683,272.200 287.200 C 271.650 287.717,271.200 288.350,271.200 288.608 C 271.200 288.865,270.840 289.402,270.400 289.800 C 269.960 290.198,269.600 290.738,269.600 291.000 C 269.600 291.262,269.240 291.802,268.800 292.200 C 268.360 292.598,268.000 293.256,268.000 293.662 C 268.000 294.068,267.820 294.400,267.600 294.400 C 267.380 294.400,267.200 294.760,267.200 295.200 C 267.200 295.640,267.020 296.000,266.800 296.000 C 266.580 296.000,266.400 296.360,266.400 296.800 C 266.400 297.240,266.220 297.600,266.000 297.600 C 265.780 297.600,265.600 297.960,265.600 298.400 C 265.600 298.840,265.420 299.200,265.200 299.200 C 264.980 299.200,264.800 299.560,264.800 300.000 C 264.800 300.440,264.620 300.800,264.400 300.800 C 264.180 300.800,264.000 301.329,264.000 301.976 C 264.000 302.623,263.820 303.264,263.600 303.400 C 263.380 303.536,263.200 304.256,263.200 305.000 C 263.200 305.744,263.020 306.464,262.800 306.600 C 262.580 306.736,262.400 307.456,262.400 308.200 C 262.400 308.944,262.220 309.664,262.000 309.800 C 261.780 309.936,261.600 311.016,261.600 312.200 C 261.600 313.384,261.420 314.464,261.200 314.600 C 260.960 314.749,260.800 317.471,260.800 321.424 C 260.800 325.541,260.950 328.000,261.200 328.000 C 261.422 328.000,261.600 329.059,261.600 330.376 C 261.600 331.683,261.780 332.864,262.000 333.000 C 262.220 333.136,262.400 333.856,262.400 334.600 C 262.400 335.344,262.580 336.064,262.800 336.200 C 263.020 336.336,263.200 336.876,263.200 337.400 C 263.200 337.924,263.380 338.464,263.600 338.600 C 263.820 338.736,264.000 339.276,264.000 339.800 C 264.000 340.324,264.180 340.864,264.400 341.000 C 264.620 341.136,264.800 341.550,264.800 341.921 C 264.800 342.802,268.277 349.800,269.023 350.419 C 269.340 350.682,269.600 351.196,269.600 351.561 C 269.600 351.925,269.960 352.483,270.400 352.800 C 270.840 353.117,271.200 353.572,271.200 353.810 C 271.200 354.048,271.830 354.854,272.600 355.600 C 273.370 356.346,274.003 357.147,274.006 357.378 C 274.014 357.974,279.025 363.200,279.587 363.200 C 279.843 363.200,280.929 364.100,282.000 365.200 C 283.071 366.300,284.230 367.200,284.574 367.200 C 284.918 367.200,285.200 367.380,285.200 367.600 C 285.200 367.820,285.538 368.000,285.951 368.000 C 286.364 368.000,286.916 368.258,287.178 368.574 C 287.797 369.319,296.400 373.600,297.279 373.600 C 297.650 373.600,298.064 373.780,298.200 374.000 C 298.336 374.220,298.865 374.400,299.375 374.400 C 299.885 374.400,300.526 374.670,300.800 375.000 C 301.074 375.330,301.690 375.600,302.169 375.600 C 302.648 375.600,303.211 375.764,303.420 375.965 C 304.332 376.840,325.334 377.626,326.144 376.816 C 326.373 376.587,327.323 376.400,328.256 376.400 C 329.189 376.400,330.064 376.220,330.200 376.000 C 330.336 375.780,331.045 375.600,331.775 375.600 C 332.505 375.600,333.326 375.330,333.600 375.000 C 333.874 374.670,334.430 374.400,334.837 374.400 C 335.243 374.400,336.217 374.040,337.000 373.600 C 337.783 373.160,338.664 372.800,338.956 372.800 C 339.714 372.800,344.400 370.333,344.400 369.933 C 344.400 369.750,344.760 369.600,345.200 369.600 C 345.640 369.600,346.000 369.420,346.000 369.200 C 346.000 368.980,346.320 368.800,346.712 368.800 C 347.103 368.800,347.683 368.440,348.000 368.000 C 348.317 367.560,348.825 367.200,349.128 367.200 C 349.431 367.200,350.183 366.660,350.800 366.000 C 351.417 365.340,352.164 364.796,352.460 364.792 C 353.085 364.783,360.800 357.092,360.800 356.478 C 360.800 356.252,361.340 355.558,362.000 354.935 C 362.660 354.312,363.200 353.527,363.200 353.190 C 363.200 352.852,363.560 352.317,364.000 352.000 C 364.440 351.683,364.800 351.103,364.800 350.712 C 364.800 350.320,364.980 350.000,365.200 350.000 C 365.420 350.000,365.600 349.640,365.600 349.200 C 365.600 348.760,365.780 348.400,366.000 348.400 C 366.220 348.400,366.400 348.040,366.400 347.600 C 366.400 347.160,366.580 346.800,366.800 346.800 C 367.020 346.800,367.200 346.548,367.200 346.241 C 367.200 345.933,367.740 344.655,368.400 343.400 C 369.060 342.145,369.600 340.788,369.600 340.383 C 369.600 339.978,369.780 339.536,370.000 339.400 C 370.220 339.264,370.400 338.724,370.400 338.200 C 370.400 337.676,370.580 337.136,370.800 337.000 C 371.020 336.864,371.200 336.144,371.200 335.400 C 371.200 334.656,371.380 333.936,371.600 333.800 C 371.820 333.664,372.000 332.584,372.000 331.400 C 372.000 330.216,372.180 329.136,372.400 329.000 C 372.643 328.850,372.800 325.870,372.800 321.400 C 372.800 316.930,372.643 313.950,372.400 313.800 C 372.180 313.664,372.000 312.584,372.000 311.400 C 372.000 310.216,371.820 309.136,371.600 309.000 C 371.380 308.864,371.200 308.043,371.200 307.176 C 371.200 306.309,371.020 305.600,370.800 305.600 C 370.580 305.600,370.400 305.060,370.400 304.400 C 370.400 303.740,370.220 303.200,370.000 303.200 C 369.780 303.200,369.600 302.660,369.600 302.000 C 369.600 301.340,369.420 300.800,369.200 300.800 C 368.980 300.800,368.800 300.260,368.800 299.600 C 368.800 298.940,368.620 298.400,368.400 298.400 C 368.180 298.400,368.000 298.158,368.000 297.861 C 368.000 297.173,366.866 294.888,366.374 294.584 C 366.167 294.456,365.647 293.582,365.219 292.641 C 364.790 291.700,364.161 290.699,363.820 290.416 C 363.479 290.134,363.200 289.688,363.200 289.426 C 363.200 289.164,362.660 288.432,362.000 287.800 C 361.340 287.168,360.800 286.456,360.800 286.218 C 360.800 285.664,352.324 277.200,351.768 277.200 C 351.538 277.200,350.832 276.660,350.200 276.000 C 349.568 275.340,348.873 274.800,348.657 274.800 C 348.440 274.800,347.933 274.501,347.529 274.136 C 346.696 273.382,346.121 273.048,342.196 271.037 C 340.655 270.246,339.170 269.600,338.896 269.600 C 338.623 269.600,338.400 269.420,338.400 269.200 C 338.400 268.980,337.860 268.800,337.200 268.800 C 336.540 268.800,336.000 268.620,336.000 268.400 C 336.000 268.180,335.460 268.000,334.800 268.000 C 334.140 268.000,333.600 267.820,333.600 267.600 C 333.600 267.380,333.071 267.200,332.424 267.200 C 331.777 267.200,331.136 267.020,331.000 266.800 C 330.864 266.580,329.964 266.400,329.000 266.400 C 328.036 266.400,327.136 266.220,327.000 266.000 C 326.864 265.780,325.424 265.600,323.800 265.600 C 322.176 265.600,320.736 265.420,320.600 265.200 C 320.464 264.980,318.743 264.800,316.776 264.800 C 314.659 264.800,313.200 264.963,313.200 265.200 " stroke="none" fill="#fcf404" fill-rule="evenodd"></path><path id="path1" d="M0.000 200.000 L 0.000 400.000 198.957 400.000 C 375.439 400.000,397.940 399.932,398.145 399.400 C 398.460 398.577,399.500 398.643,399.724 399.500 C 399.825 399.885,399.907 310.110,399.907 200.000 C 399.907 89.890,399.825 0.115,399.724 0.500 C 399.500 1.357,398.460 1.423,398.145 0.600 C 397.940 0.068,375.439 0.000,198.957 0.000 L 0.000 0.000 0.000 200.000 M98.579 32.436 C 101.267 32.919,106.219 34.285,107.295 34.841 C 107.677 35.038,108.239 35.200,108.544 35.200 C 109.360 35.200,117.509 39.525,119.600 41.067 C 120.590 41.798,122.054 42.836,122.854 43.374 C 126.094 45.554,135.200 55.388,135.200 56.708 C 135.200 56.910,135.560 57.402,136.000 57.800 C 136.440 58.198,136.800 58.695,136.800 58.904 C 136.800 59.113,137.301 60.030,137.914 60.942 C 138.977 62.526,140.800 66.121,140.800 66.635 C 140.800 66.769,141.049 67.446,141.353 68.140 C 145.621 77.865,146.309 92.851,143.007 104.162 C 141.918 107.894,136.878 118.705,135.817 119.586 C 135.478 119.868,135.200 120.312,135.200 120.574 C 135.200 120.836,134.660 121.568,134.000 122.200 C 133.340 122.832,132.800 123.538,132.800 123.768 C 132.800 124.324,124.336 132.800,123.782 132.800 C 123.544 132.800,122.832 133.340,122.200 134.000 C 121.568 134.660,120.873 135.200,120.657 135.200 C 120.440 135.200,119.948 135.485,119.563 135.833 C 118.634 136.674,116.068 138.113,112.400 139.850 C 110.750 140.631,108.950 141.498,108.400 141.776 C 107.366 142.300,101.057 144.007,97.200 144.808 C 94.634 145.341,81.038 145.121,77.556 144.491 C 72.433 143.563,59.565 138.362,58.624 136.838 C 58.482 136.610,57.609 136.082,56.683 135.665 C 54.077 134.490,44.400 125.756,44.400 124.577 C 44.400 124.328,44.022 123.782,43.560 123.364 C 41.522 121.520,35.200 110.691,35.200 109.044 C 35.200 108.716,35.020 108.336,34.800 108.200 C 34.580 108.064,34.400 107.524,34.400 107.000 C 34.400 106.476,34.220 105.936,34.000 105.800 C 33.780 105.664,33.600 105.124,33.600 104.600 C 33.600 104.076,33.439 103.548,33.242 103.426 C 33.045 103.305,32.781 102.529,32.654 101.703 C 32.527 100.876,32.215 99.030,31.960 97.600 C 31.362 94.243,31.362 82.957,31.960 79.600 C 32.215 78.170,32.527 76.324,32.654 75.497 C 32.781 74.671,33.045 73.895,33.242 73.774 C 33.439 73.652,33.600 73.170,33.600 72.703 C 33.600 70.721,38.756 59.200,39.643 59.200 C 39.839 59.200,40.000 59.016,40.000 58.791 C 40.000 57.164,49.405 46.043,52.000 44.602 C 52.550 44.297,53.475 43.631,54.055 43.123 C 54.635 42.616,55.871 41.750,56.801 41.200 C 57.731 40.650,58.793 39.930,59.160 39.600 C 60.083 38.771,65.510 36.000,66.210 36.000 C 66.524 36.000,67.370 35.641,68.090 35.201 C 68.811 34.762,69.794 34.402,70.276 34.401 C 70.758 34.401,71.264 34.220,71.400 34.000 C 71.536 33.780,72.076 33.600,72.600 33.600 C 73.124 33.600,73.648 33.445,73.765 33.257 C 73.882 33.068,75.107 32.779,76.489 32.615 C 77.870 32.451,80.170 32.171,81.600 31.992 C 84.866 31.585,95.367 31.859,98.579 32.436 M205.000 149.184 C 215.146 150.199,229.067 155.702,232.767 160.161 C 233.059 160.512,233.510 160.800,233.770 160.800 C 234.521 160.800,246.000 172.934,246.000 173.729 C 246.000 173.856,246.495 174.734,247.100 175.680 C 248.946 178.567,249.155 178.925,250.322 181.200 C 250.943 182.410,251.866 184.750,252.373 186.400 C 252.880 188.050,253.440 189.760,253.618 190.200 C 253.969 191.073,254.216 192.149,254.900 195.800 C 255.776 200.471,255.351 217.612,254.343 218.235 C 254.155 218.352,254.000 219.056,254.000 219.800 C 254.000 220.544,253.820 221.264,253.600 221.400 C 253.380 221.536,253.200 222.076,253.200 222.600 C 253.200 223.124,253.020 223.664,252.800 223.800 C 252.580 223.936,252.400 224.399,252.400 224.829 C 252.400 225.835,247.193 236.104,245.620 238.200 C 244.960 239.080,243.979 240.430,243.441 241.200 C 241.977 243.294,232.245 252.400,231.471 252.400 C 231.344 252.400,230.466 252.917,229.520 253.550 C 228.574 254.182,227.395 254.824,226.900 254.977 C 226.405 255.129,226.000 255.400,226.000 255.578 C 226.000 255.872,223.694 257.009,220.600 258.239 C 215.270 260.358,214.290 260.650,208.000 261.988 C 205.365 262.549,191.808 262.335,188.191 261.675 C 183.066 260.741,171.636 256.124,168.800 253.843 C 168.470 253.578,167.519 253.010,166.687 252.582 C 165.855 252.154,164.423 251.038,163.504 250.102 C 162.585 249.166,161.646 248.399,161.417 248.397 C 160.891 248.394,155.983 243.467,154.646 241.600 C 149.766 234.790,146.699 229.344,145.634 225.600 C 145.352 224.610,144.960 223.487,144.761 223.105 C 144.562 222.723,144.400 222.059,144.400 221.629 C 144.400 221.199,144.240 220.748,144.044 220.627 C 143.849 220.506,143.586 219.821,143.460 219.104 C 143.335 218.387,143.006 216.540,142.728 215.000 C 142.179 211.953,142.044 199.979,142.529 197.400 C 143.331 193.139,143.757 191.368,144.064 191.020 C 144.249 190.811,144.403 190.181,144.406 189.620 C 144.417 187.720,148.611 178.185,150.235 176.369 C 150.546 176.021,150.800 175.554,150.800 175.330 C 150.800 175.107,151.160 174.598,151.600 174.200 C 152.040 173.802,152.400 173.307,152.400 173.101 C 152.400 172.125,162.102 161.600,163.002 161.600 C 163.249 161.600,163.968 161.060,164.600 160.400 C 165.232 159.740,165.904 159.200,166.092 159.200 C 166.280 159.200,167.399 158.487,168.579 157.616 C 170.490 156.204,173.879 154.420,178.000 152.657 C 185.253 149.554,195.510 148.234,205.000 149.184 M327.379 265.239 C 331.582 265.999,338.778 268.471,342.756 270.521 C 346.502 272.452,347.431 273.050,350.168 275.300 C 350.903 275.905,351.665 276.400,351.859 276.400 C 352.361 276.400,361.600 285.725,361.600 286.231 C 361.600 286.462,362.140 287.168,362.800 287.800 C 363.460 288.432,364.000 289.127,364.000 289.343 C 364.000 289.560,364.295 290.063,364.655 290.461 C 365.016 290.860,365.691 291.887,366.155 292.744 C 366.620 293.601,367.504 295.236,368.121 296.379 C 369.972 299.808,371.756 305.514,373.006 312.000 C 374.042 317.375,373.633 331.332,372.371 333.695 C 372.167 334.077,372.000 334.921,372.000 335.571 C 372.000 336.221,371.820 336.864,371.600 337.000 C 371.380 337.136,371.200 337.676,371.200 338.200 C 371.200 338.724,371.020 339.264,370.800 339.400 C 370.580 339.536,370.400 339.999,370.400 340.430 C 370.400 341.519,365.573 351.099,363.835 353.457 C 363.048 354.526,361.971 356.030,361.440 356.800 C 360.272 358.496,354.343 364.374,352.400 365.761 C 342.609 372.756,337.416 375.080,326.000 377.576 C 315.515 379.868,294.749 375.564,286.800 369.453 C 286.470 369.199,285.570 368.650,284.800 368.233 C 282.749 367.121,273.801 359.079,273.416 358.000 C 273.298 357.670,272.705 356.860,272.098 356.200 C 269.396 353.263,264.000 343.823,264.000 342.032 C 264.000 341.601,263.820 341.136,263.600 341.000 C 263.380 340.864,263.200 340.324,263.200 339.800 C 263.200 339.276,263.020 338.736,262.800 338.600 C 262.580 338.464,262.400 337.924,262.400 337.400 C 262.400 336.876,262.239 336.348,262.042 336.226 C 261.845 336.105,261.581 335.329,261.454 334.503 C 261.327 333.676,261.019 331.830,260.769 330.400 C 260.133 326.760,259.847 315.193,260.380 314.660 C 260.611 314.429,260.800 313.297,260.800 312.144 C 260.800 310.991,260.980 309.936,261.200 309.800 C 261.420 309.664,261.600 309.081,261.600 308.505 C 261.600 307.928,261.768 306.904,261.973 306.228 C 262.178 305.553,262.570 304.190,262.845 303.200 C 263.402 301.190,267.356 292.950,268.235 291.969 C 268.546 291.621,268.800 291.154,268.800 290.930 C 268.800 290.707,269.160 290.198,269.600 289.800 C 270.040 289.402,270.400 288.907,270.400 288.701 C 270.400 287.716,280.106 277.200,281.015 277.200 C 281.269 277.200,281.806 276.835,282.210 276.389 C 283.976 274.437,290.372 270.666,296.000 268.258 C 302.656 265.411,309.270 264.368,318.979 264.636 C 322.268 264.727,326.048 264.998,327.379 265.239 " stroke="none" fill="#040404" fill-rule="evenodd"></path><path id="path2" d="M84.200 32.000 C 84.064 32.220,82.624 32.400,81.000 32.400 C 79.376 32.400,77.936 32.580,77.800 32.800 C 77.664 33.020,76.764 33.200,75.800 33.200 C 74.836 33.200,73.936 33.380,73.800 33.600 C 73.664 33.820,73.124 34.000,72.600 34.000 C 72.076 34.000,71.536 34.180,71.400 34.400 C 71.264 34.620,70.718 34.800,70.186 34.800 C 69.654 34.800,68.630 35.159,67.910 35.599 C 67.189 36.038,66.351 36.398,66.047 36.399 C 65.185 36.401,59.887 39.208,59.158 40.048 C 58.800 40.462,58.212 40.800,57.853 40.800 C 57.494 40.800,57.200 40.950,57.200 41.132 C 57.200 41.315,56.705 41.720,56.100 42.032 C 55.495 42.345,54.460 43.094,53.800 43.698 C 53.140 44.302,52.417 44.797,52.192 44.798 C 51.638 44.801,44.000 52.502,44.000 53.058 C 44.000 53.302,43.727 53.729,43.393 54.006 C 43.059 54.283,42.498 55.115,42.147 55.855 C 41.796 56.595,41.349 57.200,41.154 57.200 C 40.959 57.200,40.800 57.436,40.800 57.725 C 40.800 58.013,40.448 58.627,40.019 59.088 C 39.002 60.179,34.800 68.374,34.800 69.266 C 34.800 69.644,34.620 70.064,34.400 70.200 C 34.180 70.336,34.000 71.146,34.000 72.000 C 34.000 72.854,33.820 73.664,33.600 73.800 C 33.380 73.936,33.200 74.656,33.200 75.400 C 33.200 76.144,33.020 76.864,32.800 77.000 C 32.580 77.136,32.400 78.216,32.400 79.400 C 32.400 80.584,32.220 81.664,32.000 81.800 C 31.463 82.132,31.463 95.068,32.000 95.400 C 32.220 95.536,32.400 96.616,32.400 97.800 C 32.400 98.984,32.580 100.064,32.800 100.200 C 33.020 100.336,33.200 101.056,33.200 101.800 C 33.200 102.544,33.380 103.264,33.600 103.400 C 33.820 103.536,34.000 104.076,34.000 104.600 C 34.000 105.124,34.180 105.664,34.400 105.800 C 34.620 105.936,34.800 106.476,34.800 107.000 C 34.800 107.524,34.980 108.064,35.200 108.200 C 35.420 108.336,35.600 108.765,35.600 109.153 C 35.600 109.997,37.957 114.976,38.229 114.705 C 38.333 114.601,37.874 113.481,37.209 112.217 C 36.544 110.953,36.000 109.588,36.000 109.183 C 36.000 108.778,35.820 108.336,35.600 108.200 C 35.380 108.064,35.200 107.524,35.200 107.000 C 35.200 106.476,35.020 105.936,34.800 105.800 C 34.580 105.664,34.400 105.023,34.400 104.376 C 34.400 103.729,34.220 103.200,34.000 103.200 C 33.780 103.200,33.600 102.480,33.600 101.600 C 33.600 100.720,33.420 100.000,33.200 100.000 C 32.978 100.000,32.800 98.941,32.800 97.624 C 32.800 96.317,32.620 95.136,32.400 95.000 C 31.860 94.666,31.860 82.000,32.400 82.000 C 32.622 82.000,32.800 80.941,32.800 79.624 C 32.800 78.317,32.980 77.136,33.200 77.000 C 33.420 76.864,33.600 76.144,33.600 75.400 C 33.600 74.656,33.780 73.936,34.000 73.800 C 34.220 73.664,34.400 72.944,34.400 72.200 C 34.400 71.456,34.580 70.736,34.800 70.600 C 35.020 70.464,35.200 70.050,35.200 69.679 C 35.200 68.696,39.496 60.218,40.416 59.385 C 40.847 58.995,41.200 58.462,41.200 58.200 C 41.200 57.938,41.560 57.398,42.000 57.000 C 42.440 56.602,42.800 55.987,42.800 55.634 C 42.800 55.281,43.160 54.768,43.600 54.493 C 44.040 54.218,44.400 53.740,44.400 53.430 C 44.400 52.764,51.752 45.200,52.399 45.200 C 52.643 45.200,53.419 44.661,54.122 44.002 C 54.825 43.343,55.597 42.803,55.838 42.802 C 56.079 42.801,56.602 42.440,57.000 42.000 C 57.398 41.560,57.938 41.200,58.200 41.200 C 58.462 41.200,58.999 40.843,59.393 40.407 C 60.145 39.577,65.455 36.800,66.291 36.800 C 66.558 36.800,67.417 36.440,68.200 36.000 C 68.983 35.560,69.968 35.200,70.389 35.200 C 70.809 35.200,71.264 35.020,71.400 34.800 C 71.536 34.580,72.076 34.400,72.600 34.400 C 73.124 34.400,73.664 34.220,73.800 34.000 C 73.936 33.780,74.937 33.600,76.024 33.600 C 77.111 33.600,78.000 33.420,78.000 33.200 C 78.000 32.967,79.325 32.800,81.176 32.800 C 82.923 32.800,84.464 32.620,84.600 32.400 C 84.736 32.180,86.356 32.000,88.200 32.000 C 90.044 32.000,91.664 32.180,91.800 32.400 C 91.936 32.620,93.477 32.800,95.224 32.800 C 97.075 32.800,98.400 32.967,98.400 33.200 C 98.400 33.420,99.300 33.600,100.400 33.600 C 101.500 33.600,102.400 33.780,102.400 34.000 C 102.400 34.220,102.929 34.400,103.576 34.400 C 104.223 34.400,104.864 34.580,105.000 34.800 C 105.136 35.020,105.676 35.200,106.200 35.200 C 106.724 35.200,107.264 35.380,107.400 35.600 C 107.536 35.820,107.972 36.000,108.368 36.000 C 108.765 36.000,110.493 36.722,112.208 37.604 C 113.922 38.486,115.409 39.124,115.512 39.022 C 115.784 38.749,109.204 35.600,108.362 35.600 C 107.969 35.600,107.536 35.420,107.400 35.200 C 107.264 34.980,106.724 34.800,106.200 34.800 C 105.676 34.800,105.136 34.620,105.000 34.400 C 104.864 34.180,104.324 34.000,103.800 34.000 C 103.276 34.000,102.736 33.820,102.600 33.600 C 102.464 33.380,101.564 33.200,100.600 33.200 C 99.636 33.200,98.736 33.020,98.600 32.800 C 98.464 32.580,97.024 32.400,95.400 32.400 C 93.776 32.400,92.336 32.220,92.200 32.000 C 92.064 31.779,90.270 31.600,88.200 31.600 C 86.130 31.600,84.336 31.779,84.200 32.000 M116.400 39.800 C 116.674 40.130,117.118 40.400,117.387 40.400 C 117.656 40.400,118.202 40.760,118.600 41.200 C 118.998 41.640,119.532 42.000,119.787 42.000 C 120.042 42.000,120.768 42.540,121.400 43.200 C 122.032 43.860,122.744 44.400,122.982 44.400 C 123.536 44.400,132.000 52.876,132.000 53.432 C 132.000 53.662,132.540 54.368,133.200 55.000 C 133.860 55.632,134.400 56.364,134.400 56.626 C 134.400 56.888,134.673 57.329,135.007 57.606 C 135.341 57.883,135.912 58.760,136.274 59.555 C 136.637 60.350,137.194 61.306,137.512 61.681 C 138.398 62.726,140.000 66.050,140.000 66.844 C 140.000 67.234,140.180 67.664,140.400 67.800 C 140.620 67.936,140.800 68.465,140.800 68.975 C 140.800 69.485,141.115 70.140,141.500 70.432 C 142.096 70.882,142.125 70.878,141.700 70.401 C 141.425 70.092,141.200 69.336,141.200 68.720 C 141.200 68.104,141.020 67.600,140.800 67.600 C 140.580 67.600,140.400 67.060,140.400 66.400 C 140.400 65.740,140.220 65.200,140.000 65.200 C 139.780 65.200,139.600 64.840,139.600 64.400 C 139.600 63.960,139.420 63.600,139.200 63.600 C 138.980 63.600,138.800 63.280,138.800 62.888 C 138.800 62.497,138.440 61.917,138.000 61.600 C 137.560 61.283,137.200 60.703,137.200 60.312 C 137.200 59.920,137.020 59.600,136.800 59.600 C 136.580 59.600,136.400 59.280,136.400 58.888 C 136.400 58.497,136.040 57.917,135.600 57.600 C 135.160 57.283,134.800 56.783,134.800 56.490 C 134.800 56.197,134.261 55.381,133.602 54.678 C 132.943 53.975,132.403 53.206,132.402 52.968 C 132.399 52.409,123.731 44.000,123.157 44.000 C 122.917 44.000,122.217 43.460,121.600 42.800 C 120.983 42.140,120.231 41.600,119.928 41.600 C 119.625 41.600,119.117 41.240,118.800 40.800 C 118.483 40.360,117.903 40.000,117.512 40.000 C 117.120 40.000,116.800 39.820,116.800 39.600 C 116.800 39.380,116.598 39.200,116.351 39.200 C 116.041 39.200,116.056 39.385,116.400 39.800 M142.846 75.076 C 142.821 75.778,142.980 76.464,143.200 76.600 C 143.420 76.736,143.600 77.816,143.600 79.000 C 143.600 80.184,143.780 81.264,144.000 81.400 C 144.242 81.549,144.400 84.396,144.400 88.600 C 144.400 92.804,144.242 95.651,144.000 95.800 C 143.780 95.936,143.600 97.016,143.600 98.200 C 143.600 99.384,143.420 100.464,143.200 100.600 C 142.980 100.736,142.821 101.422,142.846 102.124 C 142.875 102.911,142.960 103.094,143.067 102.600 C 143.163 102.160,143.403 101.440,143.601 101.000 C 144.839 98.250,144.839 78.950,143.601 76.200 C 143.403 75.760,143.163 75.040,143.067 74.600 C 142.960 74.106,142.875 74.289,142.846 75.076 M142.267 103.867 C 142.120 104.013,142.011 104.508,142.025 104.967 C 142.049 105.733,142.082 105.723,142.434 104.842 C 142.826 103.863,142.744 103.389,142.267 103.867 M141.273 106.487 C 141.013 106.747,140.800 107.328,140.800 107.778 C 140.800 108.758,135.786 118.948,134.971 119.624 C 134.657 119.885,134.400 120.312,134.400 120.574 C 134.400 120.836,133.860 121.568,133.200 122.200 C 132.540 122.832,132.000 123.544,132.000 123.782 C 132.000 124.337,124.323 132.000,123.768 132.000 C 123.538 132.000,122.832 132.540,122.200 133.200 C 121.568 133.860,120.836 134.400,120.574 134.400 C 120.312 134.400,119.866 134.679,119.584 135.020 C 119.301 135.361,118.300 135.990,117.359 136.419 C 116.418 136.847,115.544 137.367,115.416 137.574 C 115.112 138.066,112.827 139.200,112.139 139.200 C 111.842 139.200,111.600 139.380,111.600 139.600 C 111.600 139.820,111.238 140.000,110.795 140.000 C 110.352 140.000,109.677 140.167,109.295 140.371 C 108.913 140.575,108.285 140.839,107.900 140.958 C 107.515 141.077,107.214 141.406,107.232 141.687 C 107.256 142.089,107.307 142.092,107.465 141.700 C 107.576 141.425,108.001 141.200,108.410 141.200 C 108.818 141.200,109.264 141.020,109.400 140.800 C 109.536 140.580,109.971 140.400,110.367 140.400 C 111.262 140.400,116.000 137.989,116.000 137.533 C 116.000 137.350,116.360 137.200,116.800 137.200 C 117.240 137.200,117.600 137.020,117.600 136.800 C 117.600 136.580,117.920 136.400,118.312 136.400 C 118.703 136.400,119.283 136.040,119.600 135.600 C 119.917 135.160,120.425 134.800,120.728 134.800 C 121.031 134.800,121.783 134.260,122.400 133.600 C 123.017 132.940,123.707 132.400,123.935 132.400 C 124.497 132.400,132.400 124.526,132.400 123.966 C 132.400 123.721,132.940 123.017,133.600 122.400 C 134.260 121.783,134.800 121.031,134.800 120.728 C 134.800 120.425,135.160 119.917,135.600 119.600 C 136.040 119.283,136.400 118.703,136.400 118.312 C 136.400 117.920,136.580 117.600,136.800 117.600 C 137.020 117.600,137.200 117.240,137.200 116.800 C 137.200 116.360,137.380 116.000,137.600 116.000 C 137.820 116.000,138.000 115.755,138.000 115.455 C 138.000 115.156,138.720 113.511,139.600 111.800 C 140.480 110.089,141.200 108.390,141.200 108.025 C 141.200 107.659,141.413 107.147,141.673 106.887 C 141.934 106.626,142.057 106.323,141.947 106.213 C 141.837 106.103,141.534 106.226,141.273 106.487 M39.200 117.042 C 39.200 117.252,39.560 117.683,40.000 118.000 C 40.440 118.317,40.800 118.857,40.800 119.200 C 40.800 119.543,41.160 120.083,41.600 120.400 C 42.040 120.717,42.400 121.225,42.400 121.528 C 42.400 121.831,42.940 122.583,43.600 123.200 C 44.260 123.817,44.800 124.524,44.800 124.773 C 44.800 125.339,50.047 130.798,50.597 130.805 C 50.818 130.808,51.903 131.663,53.007 132.705 C 55.127 134.707,56.453 135.600,57.306 135.600 C 57.591 135.600,58.083 135.960,58.400 136.400 C 58.717 136.840,59.297 137.200,59.688 137.200 C 60.080 137.200,60.400 137.380,60.400 137.600 C 60.400 137.820,60.760 138.000,61.200 138.000 C 61.640 138.000,62.000 138.180,62.000 138.400 C 62.000 138.620,62.360 138.800,62.800 138.800 C 63.240 138.800,63.600 138.980,63.600 139.200 C 63.600 139.420,63.960 139.600,64.400 139.600 C 64.840 139.600,65.200 139.780,65.200 140.000 C 65.200 140.220,65.560 140.400,66.000 140.400 C 66.440 140.400,66.800 140.580,66.800 140.800 C 66.800 141.020,67.304 141.200,67.920 141.200 C 68.536 141.200,69.292 141.425,69.601 141.700 C 70.078 142.125,70.082 142.096,69.632 141.500 C 69.340 141.115,68.803 140.800,68.436 140.800 C 67.684 140.800,59.512 136.785,58.475 135.906 C 58.104 135.592,57.170 135.045,56.400 134.691 C 55.630 134.338,54.198 133.228,53.217 132.224 C 52.236 131.221,51.241 130.400,51.006 130.400 C 50.458 130.400,45.200 125.116,45.200 124.565 C 45.200 124.336,44.660 123.632,44.000 123.000 C 43.340 122.368,42.800 121.642,42.800 121.387 C 42.800 121.132,42.440 120.598,42.000 120.200 C 41.560 119.802,41.200 119.265,41.200 119.008 C 41.200 118.750,40.750 118.117,40.200 117.600 C 39.650 117.083,39.200 116.832,39.200 117.042 M74.146 143.402 C 74.776 143.731,76.135 144.000,77.166 144.000 C 78.197 144.000,79.227 144.187,79.455 144.415 C 79.727 144.687,82.901 144.775,88.635 144.671 C 96.888 144.521,99.755 144.235,102.600 143.274 L 103.800 142.869 102.724 142.834 C 102.132 142.815,101.536 142.980,101.400 143.200 C 101.264 143.420,100.364 143.600,99.400 143.600 C 98.436 143.600,97.536 143.780,97.400 144.000 C 97.248 144.246,93.870 144.400,88.600 144.400 C 83.330 144.400,79.952 144.246,79.800 144.000 C 79.664 143.780,78.494 143.600,77.200 143.600 C 75.906 143.600,74.736 143.420,74.600 143.200 C 74.464 142.980,74.048 142.801,73.676 142.802 C 73.248 142.804,73.421 143.024,74.146 143.402 M195.000 149.200 C 194.864 149.420,193.323 149.600,191.576 149.600 C 189.725 149.600,188.400 149.767,188.400 150.000 C 188.400 150.220,187.511 150.400,186.424 150.400 C 185.337 150.400,184.336 150.580,184.200 150.800 C 184.064 151.020,183.524 151.200,183.000 151.200 C 182.476 151.200,181.936 151.380,181.800 151.600 C 181.664 151.820,181.209 152.000,180.789 152.000 C 180.368 152.000,179.383 152.360,178.600 152.800 C 177.817 153.240,176.866 153.606,176.488 153.613 C 175.538 153.630,173.973 154.800,174.900 154.800 C 175.259 154.800,175.664 154.620,175.800 154.400 C 175.936 154.180,176.487 154.000,177.024 154.000 C 177.561 154.000,178.000 153.820,178.000 153.600 C 178.000 153.380,178.349 153.200,178.776 153.200 C 179.203 153.200,179.664 153.020,179.800 152.800 C 179.936 152.580,180.476 152.400,181.000 152.400 C 181.524 152.400,182.064 152.220,182.200 152.000 C 182.336 151.780,182.876 151.600,183.400 151.600 C 183.924 151.600,184.464 151.420,184.600 151.200 C 184.736 150.980,185.636 150.800,186.600 150.800 C 187.564 150.800,188.464 150.620,188.600 150.400 C 188.736 150.180,190.176 150.000,191.800 150.000 C 193.424 150.000,194.864 149.820,195.000 149.600 C 195.136 149.380,196.846 149.200,198.800 149.200 C 200.754 149.200,202.464 149.380,202.600 149.600 C 202.736 149.820,204.176 150.000,205.800 150.000 C 207.424 150.000,208.864 150.180,209.000 150.400 C 209.136 150.620,210.036 150.800,211.000 150.800 C 211.964 150.800,212.864 150.980,213.000 151.200 C 213.136 151.420,213.676 151.600,214.200 151.600 C 214.724 151.600,215.264 151.780,215.400 152.000 C 215.536 152.220,216.076 152.400,216.600 152.400 C 217.124 152.400,217.664 152.580,217.800 152.800 C 217.936 153.020,218.577 153.200,219.224 153.200 C 219.871 153.200,220.400 153.336,220.400 153.502 C 220.400 153.864,222.771 154.962,223.018 154.715 C 223.291 154.443,220.004 152.800,219.186 152.800 C 218.780 152.800,218.336 152.620,218.200 152.400 C 218.064 152.180,217.524 152.000,217.000 152.000 C 216.476 152.000,215.936 151.820,215.800 151.600 C 215.664 151.380,215.124 151.200,214.600 151.200 C 214.076 151.200,213.536 151.020,213.400 150.800 C 213.264 150.580,212.263 150.400,211.176 150.400 C 210.089 150.400,209.200 150.220,209.200 150.000 C 209.200 149.767,207.875 149.600,206.024 149.600 C 204.277 149.600,202.736 149.420,202.600 149.200 C 202.464 148.980,200.754 148.800,198.800 148.800 C 196.846 148.800,195.136 148.980,195.000 149.200 M170.759 156.590 C 170.012 157.134,169.033 157.745,168.584 157.948 C 168.135 158.151,167.527 158.605,167.235 158.958 C 166.942 159.311,166.499 159.601,166.251 159.602 C 166.003 159.603,165.225 160.143,164.522 160.802 C 163.819 161.461,163.050 162.000,162.813 162.000 C 162.386 162.000,159.858 164.460,156.405 168.237 C 155.417 169.317,156.410 168.445,158.612 166.300 C 160.813 164.155,162.791 162.399,163.007 162.398 C 163.223 162.397,163.975 161.857,164.678 161.198 C 165.381 160.539,166.118 160.000,166.316 160.000 C 166.514 160.000,167.002 159.640,167.400 159.200 C 167.798 158.760,168.338 158.400,168.600 158.400 C 168.862 158.400,169.402 158.040,169.800 157.600 C 170.198 157.160,170.744 156.800,171.013 156.800 C 171.282 156.800,171.726 156.530,172.000 156.200 C 172.721 155.332,172.310 155.461,170.759 156.590 M225.378 155.964 C 225.527 156.205,226.418 156.753,227.359 157.181 C 228.300 157.610,229.301 158.239,229.584 158.580 C 229.866 158.921,230.312 159.200,230.574 159.200 C 230.836 159.200,231.568 159.740,232.200 160.400 C 232.832 161.060,233.526 161.600,233.742 161.600 C 234.287 161.600,242.800 170.067,242.800 170.609 C 242.800 170.852,243.340 171.568,244.000 172.200 C 244.660 172.832,245.200 173.564,245.200 173.826 C 245.200 174.088,245.466 174.523,245.792 174.793 C 246.456 175.344,247.600 177.483,247.600 178.173 C 247.600 178.421,247.960 178.883,248.400 179.200 C 248.840 179.517,249.200 180.097,249.200 180.488 C 249.200 180.880,249.380 181.200,249.600 181.200 C 249.820 181.200,250.000 181.560,250.000 182.000 C 250.000 182.440,250.180 182.800,250.400 182.800 C 250.620 182.800,250.800 183.340,250.800 184.000 C 250.800 184.660,250.980 185.200,251.200 185.200 C 251.420 185.200,251.600 185.729,251.600 186.376 C 251.600 187.023,251.780 187.664,252.000 187.800 C 252.220 187.936,252.400 188.476,252.400 189.000 C 252.400 189.524,252.580 190.064,252.800 190.200 C 253.020 190.336,253.200 191.056,253.200 191.800 C 253.200 192.544,253.380 193.264,253.600 193.400 C 253.820 193.536,254.000 194.616,254.000 195.800 C 254.000 196.984,254.180 198.064,254.400 198.200 C 254.643 198.350,254.800 201.330,254.800 205.800 C 254.800 210.270,254.643 213.250,254.400 213.400 C 254.180 213.536,254.000 214.616,254.000 215.800 C 254.000 216.984,253.820 218.064,253.600 218.200 C 253.380 218.336,253.200 219.056,253.200 219.800 C 253.200 220.544,253.020 221.264,252.800 221.400 C 252.580 221.536,252.400 222.076,252.400 222.600 C 252.400 223.124,252.220 223.664,252.000 223.800 C 251.780 223.936,251.600 224.372,251.600 224.768 C 251.600 225.165,250.880 226.889,250.000 228.600 C 249.120 230.311,248.400 231.956,248.400 232.255 C 248.400 232.555,248.220 232.800,248.000 232.800 C 247.780 232.800,247.600 233.160,247.600 233.600 C 247.600 234.040,247.420 234.400,247.200 234.400 C 246.980 234.400,246.800 234.720,246.800 235.112 C 246.800 235.503,246.440 236.083,246.000 236.400 C 245.560 236.717,245.200 237.209,245.200 237.492 C 245.200 237.775,244.660 238.572,244.000 239.263 C 243.340 239.954,242.800 240.672,242.800 240.860 C 242.800 241.048,243.430 240.505,244.200 239.653 C 244.970 238.800,245.600 237.922,245.600 237.700 C 245.600 237.479,245.857 237.085,246.171 236.824 C 247.024 236.116,252.000 225.935,252.000 224.898 C 252.000 224.404,252.180 224.000,252.400 224.000 C 252.620 224.000,252.800 223.460,252.800 222.800 C 252.800 222.140,252.980 221.600,253.200 221.600 C 253.420 221.600,253.600 220.880,253.600 220.000 C 253.600 219.120,253.780 218.400,254.000 218.400 C 254.222 218.400,254.400 217.341,254.400 216.024 C 254.400 214.717,254.580 213.536,254.800 213.400 C 255.044 213.249,255.200 210.196,255.200 205.576 C 255.200 200.792,255.053 198.000,254.800 198.000 C 254.578 198.000,254.400 196.933,254.400 195.600 C 254.400 194.267,254.222 193.200,254.000 193.200 C 253.780 193.200,253.600 192.480,253.600 191.600 C 253.600 190.720,253.420 190.000,253.200 190.000 C 252.980 190.000,252.800 189.471,252.800 188.824 C 252.800 188.177,252.620 187.536,252.400 187.400 C 252.180 187.264,252.000 186.724,252.000 186.200 C 252.000 185.676,251.820 185.136,251.600 185.000 C 251.380 184.864,251.200 184.434,251.200 184.044 C 251.200 183.250,249.598 179.926,248.712 178.881 C 248.394 178.506,247.837 177.550,247.474 176.755 C 247.112 175.960,246.541 175.083,246.207 174.806 C 245.873 174.529,245.600 174.088,245.600 173.826 C 245.600 173.564,245.060 172.832,244.400 172.200 C 243.740 171.568,243.200 170.844,243.200 170.591 C 243.200 169.941,234.570 161.200,233.928 161.200 C 233.636 161.200,232.888 160.660,232.265 160.000 C 231.642 159.340,230.877 158.800,230.566 158.800 C 230.255 158.800,230.000 158.654,230.000 158.477 C 230.000 158.299,228.899 157.562,227.554 156.840 C 226.208 156.118,225.229 155.724,225.378 155.964 M153.700 171.616 C 153.205 172.227,152.800 172.895,152.800 173.101 C 152.800 173.307,152.440 173.802,152.000 174.200 C 151.560 174.598,151.200 175.144,151.200 175.413 C 151.200 175.682,150.942 176.116,150.626 176.378 C 149.881 176.997,145.600 185.600,145.600 186.479 C 145.600 186.850,145.420 187.264,145.200 187.400 C 144.980 187.536,144.800 188.357,144.800 189.224 C 144.800 190.091,144.620 190.800,144.400 190.800 C 144.180 190.800,144.000 191.520,144.000 192.400 C 144.000 193.280,143.820 194.000,143.600 194.000 C 143.378 194.000,143.200 195.067,143.200 196.400 C 143.200 197.733,143.022 198.800,142.800 198.800 C 142.549 198.800,142.400 201.325,142.400 205.576 C 142.400 209.663,142.559 212.451,142.800 212.600 C 143.020 212.736,143.200 213.917,143.200 215.224 C 143.200 216.541,143.378 217.600,143.600 217.600 C 143.820 217.600,144.000 218.320,144.000 219.200 C 144.000 220.080,144.180 220.800,144.400 220.800 C 144.620 220.800,144.800 221.340,144.800 222.000 C 144.800 222.660,144.980 223.200,145.200 223.200 C 145.420 223.200,145.600 223.729,145.600 224.376 C 145.600 225.023,145.780 225.664,146.000 225.800 C 146.220 225.936,146.400 226.350,146.400 226.721 C 146.400 227.602,149.877 234.600,150.623 235.219 C 150.940 235.482,151.200 235.918,151.200 236.187 C 151.200 236.456,151.560 237.002,152.000 237.400 C 152.440 237.798,152.800 238.299,152.800 238.514 C 152.800 238.728,153.430 239.600,154.200 240.453 C 154.970 241.305,155.599 241.867,155.598 241.701 C 155.597 241.536,155.102 240.860,154.498 240.200 C 153.894 239.540,153.145 238.505,152.832 237.900 C 152.520 237.295,152.115 236.800,151.932 236.800 C 151.750 236.800,151.600 236.480,151.600 236.088 C 151.600 235.697,151.240 235.117,150.800 234.800 C 150.360 234.483,150.000 233.903,150.000 233.512 C 150.000 233.120,149.820 232.800,149.600 232.800 C 149.380 232.800,149.200 232.566,149.200 232.280 C 149.200 231.544,148.259 229.607,147.900 229.603 C 147.735 229.601,147.600 229.251,147.600 228.824 C 147.600 228.397,147.420 227.936,147.200 227.800 C 146.980 227.664,146.800 227.124,146.800 226.600 C 146.800 226.076,146.620 225.536,146.400 225.400 C 146.180 225.264,146.000 224.724,146.000 224.200 C 146.000 223.676,145.820 223.136,145.600 223.000 C 145.380 222.864,145.200 222.324,145.200 221.800 C 145.200 221.276,145.020 220.736,144.800 220.600 C 144.580 220.464,144.400 219.744,144.400 219.000 C 144.400 218.256,144.220 217.536,144.000 217.400 C 143.780 217.264,143.600 216.184,143.600 215.000 C 143.600 213.816,143.420 212.736,143.200 212.600 C 142.960 212.451,142.800 209.737,142.800 205.800 C 142.800 201.863,142.960 199.149,143.200 199.000 C 143.420 198.864,143.600 197.784,143.600 196.600 C 143.600 195.416,143.780 194.336,144.000 194.200 C 144.220 194.064,144.400 193.344,144.400 192.600 C 144.400 191.856,144.580 191.136,144.800 191.000 C 145.020 190.864,145.200 190.144,145.200 189.400 C 145.200 188.656,145.380 187.936,145.600 187.800 C 145.820 187.664,146.000 187.023,146.000 186.376 C 146.000 185.729,146.180 185.200,146.400 185.200 C 146.620 185.200,146.800 184.840,146.800 184.400 C 146.800 183.960,146.980 183.600,147.200 183.600 C 147.420 183.600,147.600 183.240,147.600 182.800 C 147.600 182.360,147.780 182.000,148.000 182.000 C 148.220 182.000,148.400 181.640,148.400 181.200 C 148.400 180.760,148.580 180.400,148.800 180.400 C 149.020 180.400,149.200 180.158,149.200 179.861 C 149.200 179.098,150.307 176.976,151.008 176.393 C 151.334 176.123,151.600 175.682,151.600 175.413 C 151.600 175.144,151.960 174.598,152.400 174.200 C 152.840 173.802,153.200 173.291,153.200 173.064 C 153.200 172.837,153.591 172.236,154.068 171.727 C 154.546 171.219,154.861 170.736,154.768 170.654 C 154.676 170.572,154.195 171.005,153.700 171.616 M238.672 245.400 C 236.548 247.490,234.610 249.200,234.366 249.200 C 234.121 249.200,233.417 249.740,232.800 250.400 C 232.183 251.060,231.431 251.600,231.128 251.600 C 230.825 251.600,230.317 251.960,230.000 252.400 C 229.683 252.840,229.103 253.200,228.712 253.200 C 228.320 253.200,228.000 253.380,228.000 253.600 C 228.000 253.820,227.640 254.000,227.200 254.000 C 226.760 254.000,226.400 254.150,226.400 254.333 C 226.400 254.717,221.728 257.200,221.005 257.200 C 220.362 257.200,218.076 258.354,217.784 258.825 C 217.412 259.428,218.101 259.257,219.510 258.399 C 220.230 257.959,221.175 257.600,221.610 257.600 C 222.044 257.600,222.400 257.420,222.400 257.200 C 222.400 256.980,222.760 256.800,223.200 256.800 C 223.640 256.800,224.000 256.620,224.000 256.400 C 224.000 256.180,224.338 256.000,224.751 256.000 C 225.164 256.000,225.734 255.721,226.016 255.380 C 226.299 255.039,227.282 254.418,228.200 254.000 C 229.118 253.582,230.101 252.961,230.384 252.620 C 230.666 252.279,231.101 251.999,231.349 251.998 C 231.597 251.997,232.375 251.457,233.078 250.798 C 233.781 250.139,234.505 249.600,234.686 249.600 C 234.867 249.600,236.808 247.800,239.000 245.600 C 241.192 243.400,242.884 241.600,242.760 241.600 C 242.636 241.600,240.797 243.310,238.672 245.400 M158.200 245.200 C 159.728 246.740,161.131 248.000,161.318 248.000 C 161.505 248.000,162.554 248.849,163.650 249.886 C 164.745 250.923,166.236 252.048,166.962 252.386 C 167.689 252.724,168.584 253.251,168.952 253.558 C 169.884 254.335,176.451 257.600,177.082 257.600 C 177.367 257.600,177.600 257.760,177.600 257.957 C 177.600 258.153,178.033 258.422,178.563 258.555 C 179.092 258.688,179.857 258.921,180.263 259.073 C 180.912 259.317,180.935 259.269,180.451 258.675 C 180.149 258.304,179.589 258.000,179.206 258.000 C 178.824 258.000,177.111 257.280,175.400 256.400 C 173.689 255.520,172.044 254.800,171.745 254.800 C 171.445 254.800,171.200 254.620,171.200 254.400 C 171.200 254.180,170.880 254.000,170.488 254.000 C 170.097 254.000,169.517 253.640,169.200 253.200 C 168.883 252.760,168.303 252.400,167.912 252.400 C 167.520 252.400,167.200 252.220,167.200 252.000 C 167.200 251.780,166.918 251.600,166.574 251.600 C 166.230 251.600,165.071 250.700,164.000 249.600 C 162.929 248.500,161.840 247.600,161.580 247.600 C 161.321 247.600,159.933 246.430,158.496 245.000 C 157.059 243.570,155.779 242.400,155.652 242.400 C 155.525 242.400,156.672 243.660,158.200 245.200 M181.800 259.600 C 182.901 260.073,183.292 260.073,183.000 259.600 C 182.864 259.380,182.358 259.213,181.876 259.228 C 181.031 259.255,181.029 259.269,181.800 259.600 M184.746 260.616 C 185.486 260.937,186.961 261.200,188.022 261.200 C 189.084 261.200,190.064 261.380,190.200 261.600 C 190.353 261.847,193.796 262.000,199.200 262.000 C 204.604 262.000,208.047 261.847,208.200 261.600 C 208.336 261.380,209.136 261.200,209.978 261.200 C 211.655 261.200,214.920 260.044,213.324 260.016 C 212.842 260.007,212.336 260.180,212.200 260.400 C 212.064 260.620,211.164 260.800,210.200 260.800 C 209.236 260.800,208.336 260.980,208.200 261.200 C 208.047 261.447,204.604 261.600,199.200 261.600 C 193.796 261.600,190.353 261.447,190.200 261.200 C 190.064 260.980,188.984 260.800,187.800 260.800 C 186.616 260.800,185.536 260.620,185.400 260.400 C 185.264 260.180,184.758 260.007,184.276 260.016 C 183.577 260.028,183.671 260.149,184.746 260.616 M313.000 264.800 C 312.864 265.020,311.334 265.200,309.600 265.200 C 307.866 265.200,306.336 265.380,306.200 265.600 C 306.064 265.820,305.164 266.000,304.200 266.000 C 303.236 266.000,302.336 266.180,302.200 266.400 C 302.064 266.620,301.524 266.800,301.000 266.800 C 300.476 266.800,299.936 266.980,299.800 267.200 C 299.664 267.420,299.209 267.600,298.789 267.600 C 298.368 267.600,297.383 267.960,296.600 268.400 C 295.817 268.840,294.928 269.200,294.626 269.200 C 293.742 269.200,290.690 270.963,291.250 271.150 C 291.531 271.244,291.829 271.113,291.913 270.860 C 291.998 270.607,292.412 270.400,292.833 270.400 C 293.255 270.400,293.600 270.220,293.600 270.000 C 293.600 269.780,294.014 269.600,294.520 269.600 C 295.574 269.600,297.592 268.747,297.597 268.300 C 297.599 268.135,298.129 268.000,298.776 268.000 C 299.423 268.000,300.064 267.820,300.200 267.600 C 300.336 267.380,300.876 267.200,301.400 267.200 C 301.924 267.200,302.464 267.020,302.600 266.800 C 302.736 266.580,303.636 266.400,304.600 266.400 C 305.564 266.400,306.464 266.220,306.600 266.000 C 306.736 265.780,308.277 265.600,310.024 265.600 C 311.875 265.600,313.200 265.433,313.200 265.200 C 313.200 264.963,314.659 264.800,316.776 264.800 C 318.743 264.800,320.464 264.980,320.600 265.200 C 320.736 265.420,322.176 265.600,323.800 265.600 C 325.424 265.600,326.864 265.780,327.000 266.000 C 327.136 266.220,328.036 266.400,329.000 266.400 C 329.964 266.400,330.864 266.580,331.000 266.800 C 331.136 267.020,331.777 267.200,332.424 267.200 C 333.071 267.200,333.600 267.380,333.600 267.600 C 333.600 267.820,334.140 268.000,334.800 268.000 C 335.460 268.000,336.000 268.180,336.000 268.400 C 336.000 268.620,336.540 268.800,337.200 268.800 C 337.860 268.800,338.400 268.980,338.400 269.200 C 338.400 269.420,338.665 269.600,338.988 269.600 C 339.311 269.600,340.232 269.969,341.035 270.420 C 341.837 270.870,342.563 271.170,342.647 271.086 C 342.902 270.832,337.941 268.400,337.167 268.400 C 336.771 268.400,336.336 268.220,336.200 268.000 C 336.064 267.780,335.524 267.600,335.000 267.600 C 334.476 267.600,333.936 267.420,333.800 267.200 C 333.664 266.980,333.124 266.800,332.600 266.800 C 332.076 266.800,331.536 266.620,331.400 266.400 C 331.264 266.180,330.364 266.000,329.400 266.000 C 328.436 266.000,327.536 265.820,327.400 265.600 C 327.264 265.380,325.734 265.200,324.000 265.200 C 322.266 265.200,320.736 265.020,320.600 264.800 C 320.464 264.580,318.754 264.400,316.800 264.400 C 314.846 264.400,313.136 264.580,313.000 264.800 M287.994 272.607 C 287.717 272.941,286.885 273.502,286.145 273.853 C 285.405 274.204,284.800 274.651,284.800 274.846 C 284.800 275.041,284.557 275.200,284.259 275.200 C 283.962 275.200,283.154 275.740,282.463 276.400 C 281.772 277.060,281.010 277.600,280.768 277.600 C 279.771 277.600,272.829 285.286,270.964 288.454 C 270.725 288.861,270.230 289.525,269.864 289.929 C 269.499 290.333,269.200 290.852,269.200 291.083 C 269.200 291.313,268.942 291.716,268.626 291.978 C 267.881 292.597,263.600 301.200,263.600 302.079 C 263.600 302.450,263.420 302.864,263.200 303.000 C 262.980 303.136,262.800 303.856,262.800 304.600 C 262.800 305.344,262.620 306.064,262.400 306.200 C 262.180 306.336,262.000 307.157,262.000 308.024 C 262.000 308.891,261.820 309.600,261.600 309.600 C 261.378 309.600,261.200 310.659,261.200 311.976 C 261.200 313.283,261.020 314.464,260.800 314.600 C 260.560 314.749,260.400 317.463,260.400 321.400 C 260.400 325.337,260.560 328.051,260.800 328.200 C 261.020 328.336,261.200 329.416,261.200 330.600 C 261.200 331.784,261.380 332.864,261.600 333.000 C 261.820 333.136,262.000 333.957,262.000 334.824 C 262.000 335.691,262.180 336.400,262.400 336.400 C 262.620 336.400,262.800 336.940,262.800 337.600 C 262.800 338.260,262.980 338.800,263.200 338.800 C 263.420 338.800,263.600 339.340,263.600 340.000 C 263.600 340.660,263.780 341.200,264.000 341.200 C 264.220 341.200,264.400 341.613,264.400 342.118 C 264.400 343.040,267.413 349.411,268.427 350.632 C 268.725 350.991,269.156 351.600,269.384 351.985 C 270.489 353.847,271.980 355.875,272.748 356.562 C 273.217 356.981,273.600 357.471,273.600 357.650 C 273.600 358.161,278.892 363.600,279.389 363.600 C 279.634 363.600,280.636 364.421,281.617 365.424 C 282.598 366.428,284.030 367.538,284.800 367.891 C 285.570 368.245,286.506 368.794,286.881 369.112 C 287.814 369.903,291.215 371.600,291.868 371.600 C 292.161 371.600,292.400 371.780,292.400 372.000 C 292.400 372.220,292.760 372.400,293.200 372.400 C 293.640 372.400,294.000 372.580,294.000 372.800 C 294.000 373.020,294.360 373.200,294.800 373.200 C 295.240 373.200,295.600 373.380,295.600 373.600 C 295.600 373.820,296.039 374.000,296.576 374.000 C 297.113 374.000,297.664 374.180,297.800 374.400 C 297.936 374.620,298.577 374.800,299.224 374.800 C 299.871 374.800,300.400 374.980,300.400 375.200 C 300.400 375.420,300.602 375.600,300.849 375.600 C 301.159 375.600,301.144 375.415,300.800 375.000 C 300.526 374.670,299.885 374.400,299.375 374.400 C 298.865 374.400,298.336 374.220,298.200 374.000 C 298.064 373.780,297.650 373.600,297.279 373.600 C 296.400 373.600,287.797 369.319,287.178 368.574 C 286.916 368.258,286.364 368.000,285.951 368.000 C 285.538 368.000,285.200 367.820,285.200 367.600 C 285.200 367.380,284.918 367.200,284.574 367.200 C 284.230 367.200,283.071 366.300,282.000 365.200 C 280.929 364.100,279.843 363.200,279.587 363.200 C 279.025 363.200,274.014 357.974,274.006 357.378 C 274.003 357.147,273.370 356.346,272.600 355.600 C 271.830 354.854,271.200 354.048,271.200 353.810 C 271.200 353.572,270.840 353.117,270.400 352.800 C 269.960 352.483,269.600 351.925,269.600 351.561 C 269.600 351.196,269.340 350.682,269.023 350.419 C 268.277 349.800,264.800 342.802,264.800 341.921 C 264.800 341.550,264.620 341.136,264.400 341.000 C 264.180 340.864,264.000 340.324,264.000 339.800 C 264.000 339.276,263.820 338.736,263.600 338.600 C 263.380 338.464,263.200 337.924,263.200 337.400 C 263.200 336.876,263.020 336.336,262.800 336.200 C 262.580 336.064,262.400 335.344,262.400 334.600 C 262.400 333.856,262.220 333.136,262.000 333.000 C 261.780 332.864,261.600 331.683,261.600 330.376 C 261.600 329.059,261.422 328.000,261.200 328.000 C 260.950 328.000,260.800 325.541,260.800 321.424 C 260.800 317.471,260.960 314.749,261.200 314.600 C 261.420 314.464,261.600 313.384,261.600 312.200 C 261.600 311.016,261.780 309.936,262.000 309.800 C 262.220 309.664,262.400 308.944,262.400 308.200 C 262.400 307.456,262.580 306.736,262.800 306.600 C 263.020 306.464,263.200 305.744,263.200 305.000 C 263.200 304.256,263.380 303.536,263.600 303.400 C 263.820 303.264,264.000 302.623,264.000 301.976 C 264.000 301.329,264.180 300.800,264.400 300.800 C 264.620 300.800,264.800 300.440,264.800 300.000 C 264.800 299.560,264.980 299.200,265.200 299.200 C 265.420 299.200,265.600 298.840,265.600 298.400 C 265.600 297.960,265.780 297.600,266.000 297.600 C 266.220 297.600,266.400 297.240,266.400 296.800 C 266.400 296.360,266.580 296.000,266.800 296.000 C 267.020 296.000,267.200 295.640,267.200 295.200 C 267.200 294.760,267.380 294.400,267.600 294.400 C 267.820 294.400,268.000 294.068,268.000 293.662 C 268.000 293.256,268.360 292.598,268.800 292.200 C 269.240 291.802,269.600 291.262,269.600 291.000 C 269.600 290.738,269.960 290.198,270.400 289.800 C 270.840 289.402,271.200 288.865,271.200 288.608 C 271.200 288.350,271.650 287.717,272.200 287.200 C 272.750 286.683,273.200 286.060,273.200 285.814 C 273.200 285.270,280.515 278.000,281.062 278.000 C 281.275 278.000,281.968 277.460,282.600 276.800 C 283.232 276.140,283.958 275.600,284.213 275.600 C 284.468 275.600,285.002 275.240,285.400 274.800 C 285.798 274.360,286.335 274.000,286.592 274.000 C 286.850 274.000,287.483 273.550,288.000 273.000 C 288.517 272.450,288.840 272.000,288.719 272.000 C 288.597 272.000,288.271 272.273,287.994 272.607 M345.149 272.525 C 345.451 272.896,345.918 273.200,346.187 273.200 C 346.456 273.200,347.002 273.560,347.400 274.000 C 347.798 274.440,348.332 274.800,348.587 274.800 C 348.842 274.800,349.568 275.340,350.200 276.000 C 350.832 276.660,351.544 277.200,351.782 277.200 C 352.336 277.200,360.800 285.676,360.800 286.232 C 360.800 286.462,361.340 287.168,362.000 287.800 C 362.660 288.432,363.200 289.164,363.200 289.426 C 363.200 289.688,363.479 290.134,363.820 290.416 C 364.161 290.699,364.790 291.700,365.219 292.641 C 365.647 293.582,366.167 294.456,366.374 294.584 C 366.866 294.888,368.000 297.173,368.000 297.861 C 368.000 298.158,368.180 298.400,368.400 298.400 C 368.620 298.400,368.800 298.940,368.800 299.600 C 368.800 300.260,368.980 300.800,369.200 300.800 C 369.420 300.800,369.600 301.340,369.600 302.000 C 369.600 302.660,369.780 303.200,370.000 303.200 C 370.220 303.200,370.400 303.740,370.400 304.400 C 370.400 305.060,370.580 305.600,370.800 305.600 C 371.020 305.600,371.200 306.309,371.200 307.176 C 371.200 308.043,371.380 308.864,371.600 309.000 C 371.820 309.136,372.000 310.216,372.000 311.400 C 372.000 312.584,372.180 313.664,372.400 313.800 C 372.643 313.950,372.800 316.930,372.800 321.400 C 372.800 325.870,372.643 328.850,372.400 329.000 C 372.180 329.136,372.000 330.216,372.000 331.400 C 372.000 332.584,371.820 333.664,371.600 333.800 C 371.380 333.936,371.200 334.656,371.200 335.400 C 371.200 336.144,371.020 336.864,370.800 337.000 C 370.580 337.136,370.400 337.676,370.400 338.200 C 370.400 338.724,370.220 339.264,370.000 339.400 C 369.780 339.536,369.600 339.978,369.600 340.383 C 369.600 340.788,369.060 342.145,368.400 343.400 C 367.740 344.655,367.200 345.933,367.200 346.241 C 367.200 346.548,367.020 346.800,366.800 346.800 C 366.580 346.800,366.400 347.160,366.400 347.600 C 366.400 348.040,366.220 348.400,366.000 348.400 C 365.780 348.400,365.600 348.760,365.600 349.200 C 365.600 349.640,365.420 350.000,365.200 350.000 C 364.980 350.000,364.800 350.320,364.800 350.712 C 364.800 351.103,364.440 351.683,364.000 352.000 C 363.560 352.317,363.200 352.852,363.200 353.190 C 363.200 353.527,362.660 354.312,362.000 354.935 C 361.340 355.558,360.800 356.308,360.800 356.601 C 360.800 356.894,360.575 357.224,360.300 357.335 C 359.907 357.494,359.909 357.544,360.310 357.568 C 360.590 357.586,360.976 357.195,361.167 356.700 C 361.359 356.205,361.984 355.364,362.558 354.830 C 363.131 354.297,363.600 353.644,363.600 353.379 C 363.600 353.115,363.857 352.685,364.171 352.424 C 365.024 351.716,370.000 341.535,370.000 340.498 C 370.000 340.004,370.180 339.600,370.400 339.600 C 370.620 339.600,370.800 339.060,370.800 338.400 C 370.800 337.740,370.980 337.200,371.200 337.200 C 371.420 337.200,371.600 336.480,371.600 335.600 C 371.600 334.720,371.780 334.000,372.000 334.000 C 372.222 334.000,372.400 332.941,372.400 331.624 C 372.400 330.317,372.580 329.136,372.800 329.000 C 373.044 328.849,373.200 325.796,373.200 321.176 C 373.200 316.392,373.053 313.600,372.800 313.600 C 372.578 313.600,372.400 312.533,372.400 311.200 C 372.400 309.867,372.222 308.800,372.000 308.800 C 371.780 308.800,371.600 308.091,371.600 307.224 C 371.600 306.357,371.420 305.536,371.200 305.400 C 370.980 305.264,370.800 304.724,370.800 304.200 C 370.800 303.676,370.620 303.136,370.400 303.000 C 370.180 302.864,370.000 302.324,370.000 301.800 C 370.000 301.276,369.820 300.736,369.600 300.600 C 369.380 300.464,369.200 300.039,369.200 299.655 C 369.200 298.758,367.339 295.013,366.581 294.384 C 366.261 294.119,366.000 293.564,366.000 293.151 C 366.000 292.738,365.820 292.400,365.600 292.400 C 365.380 292.400,365.200 292.083,365.200 291.696 C 365.200 291.309,364.840 290.768,364.400 290.493 C 363.960 290.218,363.600 289.787,363.600 289.536 C 363.600 288.319,353.084 276.800,351.973 276.800 C 351.724 276.800,351.017 276.260,350.400 275.600 C 349.783 274.940,348.991 274.400,348.640 274.400 C 348.288 274.400,348.000 274.253,348.000 274.074 C 348.000 273.894,347.235 273.321,346.300 272.799 C 345.064 272.110,344.750 272.035,345.149 272.525 M356.200 361.444 C 354.440 363.278,352.757 364.783,352.460 364.789 C 352.164 364.795,351.417 365.340,350.800 366.000 C 350.183 366.660,349.431 367.200,349.128 367.200 C 348.825 367.200,348.317 367.560,348.000 368.000 C 347.683 368.440,347.103 368.800,346.712 368.800 C 346.320 368.800,346.000 368.980,346.000 369.200 C 346.000 369.420,345.640 369.600,345.200 369.600 C 344.760 369.600,344.400 369.750,344.400 369.933 C 344.400 370.333,339.714 372.800,338.956 372.800 C 338.664 372.800,337.783 373.160,337.000 373.600 C 336.217 374.040,335.243 374.400,334.837 374.400 C 334.430 374.400,333.874 374.670,333.600 375.000 C 333.256 375.415,333.241 375.600,333.551 375.600 C 333.798 375.600,334.000 375.420,334.000 375.200 C 334.000 374.980,334.540 374.800,335.200 374.800 C 335.860 374.800,336.400 374.620,336.400 374.400 C 336.400 374.180,336.749 374.000,337.176 374.000 C 337.603 374.000,338.064 373.820,338.200 373.600 C 338.336 373.380,338.887 373.200,339.424 373.200 C 339.961 373.200,340.400 373.020,340.400 372.800 C 340.400 372.580,340.642 372.400,340.939 372.400 C 341.627 372.400,343.912 371.266,344.216 370.774 C 344.344 370.567,345.218 370.047,346.159 369.619 C 347.100 369.190,348.101 368.561,348.384 368.220 C 348.666 367.879,349.112 367.600,349.374 367.600 C 349.636 367.600,350.368 367.060,351.000 366.400 C 351.632 365.740,352.345 365.200,352.583 365.200 C 352.822 365.200,354.629 363.580,356.600 361.600 C 358.571 359.620,360.007 358.025,359.792 358.056 C 359.576 358.086,357.960 359.611,356.200 361.444 M330.200 376.000 C 329.908 376.473,330.299 376.473,331.400 376.000 C 332.171 375.669,332.169 375.655,331.324 375.628 C 330.842 375.613,330.336 375.780,330.200 376.000 M306.400 376.684 C 307.170 376.777,307.971 377.021,308.180 377.227 C 308.704 377.741,325.881 377.716,326.200 377.200 C 326.336 376.980,327.022 376.775,327.724 376.746 C 328.762 376.701,328.821 376.657,328.040 376.510 C 327.512 376.410,326.701 376.532,326.237 376.780 C 325.425 377.215,311.308 377.154,306.800 376.697 C 305.810 376.597,305.630 376.591,306.400 376.684 " stroke="none" fill="#2c2c04" fill-rule="evenodd"></path><path id="path3" d="" stroke="none" fill="#2c2404" fill-rule="evenodd"></path><path id="path4" d="M81.600 32.000 L 79.000 32.262 81.476 32.331 C 82.838 32.369,84.064 32.220,84.200 32.000 C 84.336 31.780,84.392 31.631,84.324 31.669 C 84.256 31.707,83.030 31.856,81.600 32.000 M93.500 32.289 C 94.215 32.378,95.385 32.378,96.100 32.289 C 96.815 32.201,96.230 32.128,94.800 32.128 C 93.370 32.128,92.785 32.201,93.500 32.289 M98.766 32.926 C 98.947 33.107,99.793 33.193,100.647 33.119 L 102.200 32.983 100.319 32.790 C 99.284 32.684,98.585 32.745,98.766 32.926 M74.905 33.087 C 75.514 33.179,76.414 33.177,76.905 33.082 C 77.397 32.987,76.900 32.911,75.800 32.914 C 74.700 32.917,74.297 32.995,74.905 33.087 M105.141 34.501 C 105.343 34.703,105.933 34.801,106.454 34.719 C 107.255 34.593,107.198 34.537,106.087 34.352 C 105.293 34.221,104.919 34.279,105.141 34.501 M108.400 35.488 C 108.950 35.587,109.571 35.832,109.780 36.034 C 109.989 36.235,110.439 36.399,110.780 36.398 C 111.121 36.396,110.884 36.126,110.254 35.798 C 109.624 35.469,108.724 35.225,108.254 35.254 C 107.532 35.301,107.554 35.337,108.400 35.488 M56.056 41.634 C 55.536 42.055,55.266 42.394,55.456 42.387 C 55.944 42.369,57.376 41.243,57.171 41.039 C 57.077 40.945,56.575 41.213,56.056 41.634 M48.000 48.200 C 47.028 49.190,46.323 50.000,46.433 50.000 C 46.543 50.000,47.428 49.190,48.400 48.200 C 49.372 47.210,50.077 46.400,49.967 46.400 C 49.857 46.400,48.972 47.210,48.000 48.200 M128.400 48.600 C 129.146 49.370,129.847 50.000,129.957 50.000 C 130.067 50.000,129.546 49.370,128.800 48.600 C 128.054 47.830,127.353 47.200,127.243 47.200 C 127.133 47.200,127.654 47.830,128.400 48.600 M33.693 72.400 C 33.693 73.170,33.775 73.485,33.876 73.100 C 33.976 72.715,33.976 72.085,33.876 71.700 C 33.775 71.315,33.693 71.630,33.693 72.400 M32.901 75.400 C 32.905 76.280,32.987 76.593,33.083 76.095 C 33.179 75.598,33.175 74.878,33.075 74.495 C 32.975 74.113,32.896 74.520,32.901 75.400 M143.200 74.976 C 143.200 75.513,143.347 76.044,143.528 76.155 C 143.708 76.267,143.777 75.827,143.682 75.179 C 143.472 73.749,143.200 73.635,143.200 74.976 M144.046 78.876 C 144.021 79.908,144.142 80.841,144.316 80.948 C 144.490 81.056,144.570 80.482,144.493 79.672 C 144.259 77.198,144.095 76.907,144.046 78.876 M31.994 79.681 C 31.887 80.936,31.946 81.816,32.124 81.637 C 32.303 81.458,32.390 80.431,32.318 79.356 L 32.187 77.400 31.994 79.681 M31.362 88.600 C 31.362 92.120,31.424 93.506,31.498 91.681 C 31.572 89.856,31.572 86.976,31.497 85.281 C 31.422 83.586,31.361 85.080,31.362 88.600 M144.950 88.200 C 144.951 90.620,145.016 91.558,145.096 90.285 C 145.176 89.012,145.175 87.032,145.094 85.885 C 145.014 84.738,144.949 85.780,144.950 88.200 M31.994 97.519 L 32.187 99.800 32.318 97.844 C 32.390 96.769,32.303 95.742,32.124 95.563 C 31.946 95.384,31.887 96.264,31.994 97.519 M144.109 98.000 C 144.109 98.990,144.187 99.395,144.282 98.900 C 144.378 98.405,144.378 97.595,144.282 97.100 C 144.187 96.605,144.109 97.010,144.109 98.000 M32.735 101.636 C 32.817 102.499,33.045 103.305,33.242 103.426 C 33.439 103.548,33.600 104.076,33.600 104.600 C 33.600 105.124,33.780 105.664,34.000 105.800 C 34.220 105.936,34.425 106.532,34.454 107.124 C 34.505 108.132,34.520 108.140,34.688 107.254 C 34.787 106.733,34.672 106.112,34.434 105.874 C 34.195 105.635,34.000 105.037,34.000 104.544 C 34.000 104.051,33.820 103.536,33.600 103.400 C 33.380 103.264,33.200 102.544,33.200 101.800 C 33.200 101.056,33.062 100.362,32.893 100.257 C 32.724 100.153,32.653 100.773,32.735 101.636 M141.588 107.222 C 141.346 107.674,141.218 108.255,141.304 108.511 C 141.389 108.768,141.662 108.398,141.909 107.689 C 142.417 106.232,142.249 105.988,141.588 107.222 M50.439 130.900 C 50.535 130.955,51.420 131.720,52.406 132.600 L 54.200 134.200 52.619 132.500 C 51.749 131.565,50.864 130.800,50.652 130.800 C 50.440 130.800,50.344 130.845,50.439 130.900 M107.424 141.813 C 106.996 142.136,106.827 142.400,107.047 142.400 C 107.267 142.400,107.796 142.136,108.224 141.813 C 108.651 141.490,108.820 141.225,108.600 141.225 C 108.380 141.225,107.851 141.490,107.424 141.813 M76.200 144.203 C 77.114 144.521,79.529 144.609,79.348 144.316 C 79.241 144.142,78.398 144.014,77.476 144.032 C 76.554 144.049,75.980 144.126,76.200 144.203 M98.500 144.276 C 98.885 144.376,99.515 144.376,99.900 144.276 C 100.285 144.175,99.970 144.093,99.200 144.093 C 98.430 144.093,98.115 144.175,98.500 144.276 M84.300 145.098 C 86.555 145.170,90.245 145.170,92.500 145.098 C 94.755 145.027,92.910 144.969,88.400 144.969 C 83.890 144.969,82.045 145.027,84.300 145.098 M190.691 149.489 C 191.401 149.577,192.661 149.579,193.491 149.492 C 194.321 149.405,193.740 149.333,192.200 149.331 C 190.660 149.329,189.981 149.400,190.691 149.489 M203.891 149.489 C 204.601 149.577,205.861 149.579,206.691 149.492 C 207.521 149.405,206.940 149.333,205.400 149.331 C 203.860 149.329,203.181 149.400,203.891 149.489 M210.100 150.276 C 210.485 150.376,211.115 150.376,211.500 150.276 C 211.885 150.175,211.570 150.093,210.800 150.093 C 210.030 150.093,209.715 150.175,210.100 150.276 M178.254 152.602 C 177.624 152.931,176.814 153.214,176.454 153.232 C 176.016 153.253,175.970 153.332,176.315 153.470 C 176.802 153.666,179.600 152.568,179.600 152.181 C 179.600 151.918,179.517 151.944,178.254 152.602 M152.926 172.100 C 152.155 173.299,151.662 174.409,151.992 174.205 C 152.188 174.084,152.617 173.448,152.944 172.792 C 153.540 171.597,153.529 171.162,152.926 172.100 M247.200 176.078 C 247.200 176.205,247.469 176.824,247.798 177.454 C 248.126 178.084,248.390 178.330,248.385 178.000 C 248.379 177.670,248.110 177.051,247.787 176.624 C 247.464 176.196,247.200 175.951,247.200 176.078 M147.986 180.301 C 147.145 181.987,147.140 182.000,147.347 182.000 C 147.605 182.000,148.842 179.508,148.669 179.336 C 148.595 179.262,148.288 179.696,147.986 180.301 M253.600 191.576 C 253.600 192.223,253.742 192.841,253.916 192.948 C 254.090 193.056,254.161 192.527,254.073 191.772 C 253.876 190.091,253.600 189.977,253.600 191.576 M143.660 191.867 C 143.627 192.344,143.484 193.064,143.341 193.467 C 143.142 194.031,143.195 194.096,143.572 193.749 C 143.842 193.501,143.985 192.781,143.891 192.149 C 143.770 191.339,143.702 191.256,143.660 191.867 M254.509 195.200 C 254.509 196.190,254.587 196.595,254.682 196.100 C 254.778 195.605,254.778 194.795,254.682 194.300 C 254.587 193.805,254.509 194.210,254.509 195.200 M142.909 196.000 C 142.909 196.990,142.987 197.395,143.082 196.900 C 143.178 196.405,143.178 195.595,143.082 195.100 C 142.987 194.605,142.909 195.010,142.909 196.000 M255.366 205.600 C 255.366 209.670,255.425 211.335,255.498 209.300 C 255.571 207.265,255.571 203.935,255.498 201.900 C 255.425 199.865,255.366 201.530,255.366 205.600 M142.163 205.600 C 142.163 209.230,142.223 210.715,142.298 208.900 C 142.372 207.085,142.372 204.115,142.298 202.300 C 142.223 200.485,142.163 201.970,142.163 205.600 M142.676 214.646 C 142.940 217.355,143.132 217.733,143.162 215.600 C 143.176 214.610,143.030 213.551,142.837 213.246 C 142.621 212.905,142.559 213.442,142.676 214.646 M254.509 216.400 C 254.509 217.390,254.587 217.795,254.682 217.300 C 254.778 216.805,254.778 215.995,254.682 215.500 C 254.587 215.005,254.509 215.410,254.509 216.400 M143.568 219.100 C 143.759 220.481,143.787 220.509,143.919 219.451 C 143.998 218.819,143.905 218.145,143.712 217.952 C 143.510 217.750,143.449 218.240,143.568 219.100 M253.701 219.800 C 253.705 220.680,253.787 220.993,253.883 220.495 C 253.979 219.998,253.975 219.278,253.875 218.895 C 253.775 218.513,253.696 218.920,253.701 219.800 M244.204 239.596 C 243.574 240.254,243.135 240.856,243.229 240.934 C 243.323 241.012,243.913 240.474,244.539 239.738 C 245.954 238.077,245.745 237.988,244.204 239.596 M153.829 240.438 C 154.473 241.229,155.081 241.808,155.179 241.725 C 155.278 241.642,154.751 240.995,154.009 240.287 L 152.658 239.000 153.829 240.438 M156.600 244.000 C 157.459 244.880,158.252 245.600,158.362 245.600 C 158.472 245.600,157.859 244.880,157.000 244.000 C 156.141 243.120,155.348 242.400,155.238 242.400 C 155.128 242.400,155.741 243.120,156.600 244.000 M239.775 244.900 L 238.600 246.200 239.900 245.025 C 241.112 243.930,241.384 243.600,241.075 243.600 C 241.006 243.600,240.421 244.185,239.775 244.900 M159.775 247.100 C 160.421 247.815,161.231 248.386,161.575 248.368 C 162.113 248.341,162.117 248.307,161.600 248.119 C 161.270 247.998,160.460 247.428,159.800 246.850 L 158.600 245.800 159.775 247.100 M236.581 248.100 L 235.000 249.800 236.700 248.219 C 238.281 246.748,238.584 246.400,238.281 246.400 C 238.216 246.400,237.451 247.165,236.581 248.100 M232.600 251.200 C 232.202 251.640,231.662 252.000,231.400 252.000 C 231.138 252.000,230.581 252.405,230.162 252.900 C 229.401 253.799,229.401 253.799,230.231 253.100 C 230.689 252.715,231.242 252.400,231.462 252.400 C 231.681 252.400,232.283 251.950,232.800 251.400 C 233.317 250.850,233.646 250.400,233.532 250.400 C 233.417 250.400,232.998 250.760,232.600 251.200 M166.624 252.587 C 167.051 252.910,167.670 253.179,168.000 253.185 C 168.330 253.190,168.084 252.926,167.454 252.598 C 165.995 251.837,165.625 251.832,166.624 252.587 M187.000 261.403 C 187.914 261.721,190.329 261.809,190.148 261.516 C 190.041 261.342,189.198 261.214,188.276 261.232 C 187.354 261.249,186.780 261.326,187.000 261.403 M209.300 261.476 C 209.685 261.576,210.315 261.576,210.700 261.476 C 211.085 261.375,210.770 261.293,210.000 261.293 C 209.230 261.293,208.915 261.375,209.300 261.476 M194.922 262.299 C 197.299 262.370,201.079 262.369,203.322 262.298 C 205.565 262.227,203.620 262.169,199.000 262.169 C 194.380 262.170,192.545 262.228,194.922 262.299 M310.200 264.800 L 307.400 265.059 310.076 265.129 C 311.548 265.168,312.864 265.020,313.000 264.800 C 313.136 264.580,313.192 264.432,313.124 264.471 C 313.056 264.509,311.740 264.658,310.200 264.800 M321.891 265.089 C 322.601 265.177,323.861 265.179,324.691 265.092 C 325.521 265.005,324.940 264.933,323.400 264.931 C 321.860 264.929,321.181 265.000,321.891 265.089 M327.566 265.726 C 327.747 265.907,328.593 265.993,329.447 265.919 L 331.000 265.783 329.119 265.590 C 328.084 265.484,327.385 265.545,327.566 265.726 M303.500 265.882 C 303.995 265.978,304.805 265.978,305.300 265.882 C 305.795 265.787,305.390 265.709,304.400 265.709 C 303.410 265.709,303.005 265.787,303.500 265.882 M296.254 268.202 C 295.624 268.531,294.814 268.814,294.454 268.832 C 294.016 268.853,293.970 268.932,294.315 269.070 C 294.802 269.266,297.600 268.168,297.600 267.781 C 297.600 267.518,297.517 267.544,296.254 268.202 M338.400 268.547 C 338.400 268.654,339.435 269.235,340.700 269.839 C 341.965 270.443,343.135 271.007,343.300 271.092 C 343.465 271.177,343.600 271.160,343.600 271.053 C 343.600 270.946,342.565 270.365,341.300 269.761 C 340.035 269.157,338.865 268.593,338.700 268.508 C 338.535 268.423,338.400 268.440,338.400 268.547 M262.368 304.900 C 262.249 305.760,262.310 306.250,262.512 306.048 C 262.705 305.855,262.798 305.181,262.719 304.549 C 262.587 303.491,262.559 303.519,262.368 304.900 M261.693 308.000 C 261.693 308.770,261.775 309.085,261.876 308.700 C 261.976 308.315,261.976 307.685,261.876 307.300 C 261.775 306.915,261.693 307.230,261.693 308.000 M372.428 310.633 C 372.444 311.495,372.617 312.560,372.814 313.000 C 373.048 313.522,373.088 313.037,372.932 311.600 C 372.643 308.958,372.389 308.470,372.428 310.633 M260.914 311.800 C 260.917 312.900,260.995 313.303,261.087 312.695 C 261.179 312.086,261.177 311.186,261.082 310.695 C 260.987 310.203,260.911 310.700,260.914 311.800 M373.366 321.200 C 373.366 325.270,373.425 326.935,373.498 324.900 C 373.571 322.865,373.571 319.535,373.498 317.500 C 373.425 315.465,373.366 317.130,373.366 321.200 M260.163 321.200 C 260.163 324.830,260.223 326.315,260.298 324.500 C 260.372 322.685,260.372 319.715,260.298 317.900 C 260.223 316.085,260.163 317.570,260.163 321.200 M260.914 330.600 C 260.917 331.700,260.995 332.103,261.087 331.495 C 261.179 330.886,261.177 329.986,261.082 329.495 C 260.987 329.003,260.911 329.500,260.914 330.600 M372.656 330.084 C 372.521 330.588,372.430 331.630,372.452 332.400 C 372.486 333.534,372.562 333.389,372.852 331.639 C 373.220 329.425,373.096 328.443,372.656 330.084 M261.693 334.800 C 261.693 335.570,261.775 335.885,261.876 335.500 C 261.976 335.115,261.976 334.485,261.876 334.100 C 261.775 333.715,261.693 334.030,261.693 334.800 M371.693 335.600 C 371.693 336.370,371.775 336.685,371.876 336.300 C 371.976 335.915,371.976 335.285,371.876 334.900 C 371.775 334.515,371.693 334.830,371.693 335.600 M366.629 348.061 C 366.283 348.755,366.000 349.425,366.000 349.550 C 366.000 349.897,367.033 348.294,367.321 347.500 C 367.736 346.355,367.306 346.704,366.629 348.061 M362.204 355.196 C 361.574 355.854,361.135 356.456,361.229 356.534 C 361.323 356.612,361.913 356.074,362.539 355.338 C 363.954 353.677,363.745 353.588,362.204 355.196 M272.434 356.647 C 272.965 357.333,273.480 357.823,273.579 357.735 C 273.677 357.647,273.243 357.086,272.613 356.488 L 271.469 355.400 272.434 356.647 M356.992 361.300 L 353.000 365.400 357.100 361.408 C 360.908 357.699,361.382 357.200,361.092 357.200 C 361.033 357.200,359.188 359.045,356.992 361.300 M281.200 365.325 C 281.200 365.394,281.785 365.979,282.500 366.625 L 283.800 367.800 282.625 366.500 C 281.530 365.288,281.200 365.016,281.200 365.325 M284.624 368.187 C 285.051 368.510,285.566 368.780,285.769 368.787 C 285.971 368.794,286.508 369.115,286.962 369.500 C 287.727 370.149,287.748 370.150,287.251 369.508 C 286.773 368.891,284.616 367.600,284.062 367.600 C 283.944 367.600,284.196 367.864,284.624 368.187 M298.800 375.200 C 299.130 375.413,299.670 375.588,300.000 375.588 C 300.533 375.588,300.533 375.545,300.000 375.200 C 299.670 374.987,299.130 374.812,298.800 374.812 C 298.267 374.812,298.267 374.855,298.800 375.200 M334.200 375.200 C 333.908 375.673,334.299 375.673,335.400 375.200 C 336.171 374.869,336.169 374.855,335.324 374.828 C 334.842 374.813,334.336 374.980,334.200 375.200 M305.200 376.958 C 305.200 377.045,305.905 377.183,306.766 377.265 C 307.628 377.348,308.247 377.276,308.143 377.107 C 307.953 376.800,305.200 376.660,305.200 376.958 M326.252 377.116 C 326.144 377.290,326.673 377.361,327.428 377.273 C 328.183 377.185,328.800 377.042,328.800 376.956 C 328.800 376.655,326.445 376.803,326.252 377.116 M312.922 377.899 C 315.299 377.970,319.079 377.969,321.322 377.898 C 323.565 377.827,321.620 377.769,317.000 377.769 C 312.380 377.770,310.545 377.828,312.922 377.899 " stroke="none" fill="#1f1b04" fill-rule="evenodd"></path></g></svg>