<?xml version="1.0" standalone="no"?>
<!DOCTYPE svg PUBLIC "-//W3C//DTD SVG 20010904//EN"
 "http://www.w3.org/TR/2001/REC-SVG-20010904/DTD/svg10.dtd">
<svg version="1.0" xmlns="http://www.w3.org/2000/svg"
 width="488.000000pt" height="488.000000pt" viewBox="0 0 488.000000 488.000000"
 preserveAspectRatio="xMidYMid meet">

<g transform="translate(0.000000,488.000000) scale(0.100000,-0.100000)"
fill="#000000" stroke="none">
<path d="M0 2440 l0 -2440 2440 0 2440 0 0 2440 0 2440 -2440 0 -2440 0 0
-2440z m2635 696 c188 -60 324 -181 416 -369 48 -99 63 -189 56 -332 -9 -182
-62 -301 -197 -437 -74 -74 -100 -94 -181 -132 -209 -100 -400 -100 -609 1
-79 38 -108 59 -175 127 -138 140 -194 265 -202 451 -9 204 48 363 179 501
109 114 216 176 362 210 93 21 252 12 351 -20z"/>
</g>
</svg>
