<svg id="svg" version="1.1" xmlns="http://www.w3.org/2000/svg" xmlns:xlink="http://www.w3.org/1999/xlink" width="400" height="400" viewBox="0, 0, 400,400"><g id="svgg"><path id="path0" d="M112.200 58.800 C 112.064 59.020,110.523 59.200,108.776 59.200 C 106.925 59.200,105.600 59.367,105.600 59.600 C 105.600 59.820,104.700 60.000,103.600 60.000 C 102.500 60.000,101.600 60.180,101.600 60.400 C 101.600 60.620,101.071 60.800,100.424 60.800 C 99.777 60.800,99.136 60.980,99.000 61.200 C 98.864 61.420,98.409 61.600,97.989 61.600 C 97.568 61.600,96.583 61.960,95.800 62.400 C 95.017 62.840,94.158 63.200,93.891 63.200 C 93.147 63.200,87.731 65.960,87.185 66.618 C 86.919 66.938,86.482 67.200,86.213 67.200 C 85.944 67.200,85.398 67.560,85.000 68.000 C 84.602 68.440,84.068 68.800,83.813 68.800 C 83.558 68.800,82.832 69.340,82.200 70.000 C 81.568 70.660,80.856 71.200,80.618 71.200 C 80.055 71.200,72.000 79.280,72.000 79.845 C 72.000 80.082,71.640 80.602,71.200 81.000 C 70.760 81.398,70.400 81.938,70.400 82.200 C 70.400 82.462,70.040 83.002,69.600 83.400 C 69.160 83.798,68.800 84.344,68.800 84.613 C 68.800 84.882,68.542 85.316,68.226 85.578 C 67.481 86.197,63.200 94.800,63.200 95.679 C 63.200 96.050,63.020 96.464,62.800 96.600 C 62.580 96.736,62.400 97.456,62.400 98.200 C 62.400 98.944,62.220 99.664,62.000 99.800 C 61.780 99.936,61.600 100.757,61.600 101.624 C 61.600 102.491,61.420 103.200,61.200 103.200 C 60.978 103.200,60.800 104.259,60.800 105.576 C 60.800 106.883,60.620 108.064,60.400 108.200 C 60.161 108.348,60.000 110.996,60.000 114.800 C 60.000 118.604,60.161 121.252,60.400 121.400 C 60.620 121.536,60.800 122.616,60.800 123.800 C 60.800 124.984,60.980 126.064,61.200 126.200 C 61.420 126.336,61.600 127.157,61.600 128.024 C 61.600 128.891,61.780 129.600,62.000 129.600 C 62.220 129.600,62.400 130.140,62.400 130.800 C 62.400 131.460,62.580 132.000,62.800 132.000 C 63.020 132.000,63.200 132.529,63.200 133.176 C 63.200 133.823,63.380 134.464,63.600 134.600 C 63.820 134.736,64.000 135.150,64.000 135.521 C 64.000 136.402,67.477 143.400,68.223 144.019 C 68.540 144.282,68.800 144.718,68.800 144.987 C 68.800 145.256,69.160 145.802,69.600 146.200 C 70.040 146.598,70.400 147.131,70.400 147.384 C 70.400 147.636,71.030 148.454,71.800 149.200 C 72.570 149.946,73.200 150.752,73.200 150.990 C 73.200 151.535,78.079 156.400,78.626 156.400 C 78.848 156.400,79.923 157.311,81.015 158.424 C 82.107 159.537,83.630 160.737,84.400 161.091 C 85.170 161.445,86.104 161.992,86.475 162.306 C 87.531 163.202,95.691 167.200,96.462 167.200 C 96.842 167.200,97.264 167.380,97.400 167.600 C 97.536 167.820,98.177 168.000,98.824 168.000 C 99.471 168.000,100.000 168.180,100.000 168.400 C 100.000 168.620,100.540 168.800,101.200 168.800 C 101.860 168.800,102.400 168.980,102.400 169.200 C 102.400 169.422,103.459 169.600,104.776 169.600 C 106.083 169.600,107.264 169.780,107.400 170.000 C 107.735 170.541,125.065 170.541,125.400 170.000 C 125.536 169.780,126.537 169.600,127.624 169.600 C 128.711 169.600,129.600 169.420,129.600 169.200 C 129.600 168.980,130.320 168.800,131.200 168.800 C 132.080 168.800,132.800 168.620,132.800 168.400 C 132.800 168.180,133.245 168.000,133.788 168.000 C 134.331 168.000,135.417 167.640,136.200 167.200 C 136.983 166.760,137.858 166.400,138.144 166.400 C 138.788 166.400,142.195 164.696,143.119 163.912 C 143.494 163.594,144.450 163.037,145.245 162.674 C 146.040 162.312,146.917 161.741,147.194 161.407 C 147.471 161.073,147.911 160.800,148.171 160.800 C 148.430 160.800,149.254 160.170,150.000 159.400 C 150.746 158.630,151.550 158.000,151.786 158.000 C 152.338 158.000,160.000 150.321,160.000 149.768 C 160.000 149.538,160.540 148.832,161.200 148.200 C 161.860 147.568,162.400 146.836,162.400 146.574 C 162.400 146.312,162.657 145.885,162.971 145.624 C 163.716 145.006,168.800 134.798,168.800 133.921 C 168.800 133.551,168.980 133.136,169.200 133.000 C 169.420 132.864,169.600 132.223,169.600 131.576 C 169.600 130.929,169.780 130.400,170.000 130.400 C 170.220 130.400,170.400 129.680,170.400 128.800 C 170.400 127.920,170.580 127.200,170.800 127.200 C 171.022 127.200,171.200 126.141,171.200 124.824 C 171.200 123.517,171.380 122.336,171.600 122.200 C 171.843 122.050,172.000 119.137,172.000 114.800 C 172.000 110.463,171.843 107.550,171.600 107.400 C 171.380 107.264,171.200 106.083,171.200 104.776 C 171.200 103.459,171.022 102.400,170.800 102.400 C 170.580 102.400,170.400 101.691,170.400 100.824 C 170.400 99.957,170.220 99.136,170.000 99.000 C 169.780 98.864,169.600 98.324,169.600 97.800 C 169.600 97.276,169.420 96.736,169.200 96.600 C 168.980 96.464,168.800 95.924,168.800 95.400 C 168.800 94.876,168.620 94.336,168.400 94.200 C 168.180 94.064,168.000 93.634,168.000 93.244 C 168.000 92.450,166.398 89.126,165.512 88.081 C 165.194 87.706,164.637 86.750,164.274 85.955 C 163.912 85.160,163.341 84.283,163.007 84.006 C 162.673 83.729,162.400 83.288,162.400 83.026 C 162.400 82.764,161.860 82.032,161.200 81.400 C 160.540 80.768,160.000 80.056,160.000 79.819 C 160.000 79.264,151.124 70.400,150.569 70.400 C 150.338 70.400,149.632 69.860,149.000 69.200 C 148.368 68.540,147.636 68.000,147.374 68.000 C 147.112 68.000,146.684 67.742,146.422 67.426 C 145.803 66.681,137.200 62.400,136.321 62.400 C 135.950 62.400,135.536 62.220,135.400 62.000 C 135.264 61.780,134.724 61.600,134.200 61.600 C 133.676 61.600,133.136 61.420,133.000 61.200 C 132.864 60.980,132.223 60.800,131.576 60.800 C 130.929 60.800,130.400 60.620,130.400 60.400 C 130.400 60.180,129.500 60.000,128.400 60.000 C 127.300 60.000,126.400 59.820,126.400 59.600 C 126.400 59.367,125.075 59.200,123.224 59.200 C 121.477 59.200,119.936 59.020,119.800 58.800 C 119.664 58.580,117.954 58.400,116.000 58.400 C 114.046 58.400,112.336 58.580,112.200 58.800 M277.800 225.200 C 277.664 225.420,276.123 225.600,274.376 225.600 C 272.525 225.600,271.200 225.767,271.200 226.000 C 271.200 226.220,270.311 226.400,269.224 226.400 C 268.137 226.400,267.136 226.580,267.000 226.800 C 266.864 227.020,266.324 227.200,265.800 227.200 C 265.276 227.200,264.736 227.380,264.600 227.600 C 264.464 227.820,264.009 228.000,263.589 228.000 C 263.168 228.000,262.183 228.360,261.400 228.800 C 260.617 229.240,259.758 229.600,259.491 229.600 C 258.747 229.600,253.331 232.360,252.785 233.018 C 252.519 233.338,252.082 233.600,251.813 233.600 C 251.544 233.600,250.998 233.960,250.600 234.400 C 250.202 234.840,249.668 235.200,249.413 235.200 C 249.158 235.200,248.432 235.740,247.800 236.400 C 247.168 237.060,246.456 237.600,246.218 237.600 C 245.655 237.600,237.600 245.680,237.600 246.245 C 237.600 246.482,237.240 247.002,236.800 247.400 C 236.360 247.798,236.000 248.338,236.000 248.600 C 236.000 248.862,235.640 249.402,235.200 249.800 C 234.760 250.198,234.400 250.744,234.400 251.013 C 234.400 251.282,234.142 251.716,233.826 251.978 C 233.081 252.597,228.800 261.200,228.800 262.079 C 228.800 262.450,228.620 262.864,228.400 263.000 C 228.180 263.136,228.000 263.856,228.000 264.600 C 228.000 265.344,227.820 266.064,227.600 266.200 C 227.380 266.336,227.200 267.056,227.200 267.800 C 227.200 268.544,227.020 269.264,226.800 269.400 C 226.580 269.536,226.400 270.706,226.400 272.000 C 226.400 273.294,226.220 274.464,226.000 274.600 C 225.761 274.748,225.600 277.396,225.600 281.200 C 225.600 285.004,225.761 287.652,226.000 287.800 C 226.220 287.936,226.400 289.117,226.400 290.424 C 226.400 291.741,226.578 292.800,226.800 292.800 C 227.020 292.800,227.200 293.520,227.200 294.400 C 227.200 295.280,227.380 296.000,227.600 296.000 C 227.820 296.000,228.000 296.529,228.000 297.176 C 228.000 297.823,228.180 298.464,228.400 298.600 C 228.620 298.736,228.800 299.276,228.800 299.800 C 228.800 300.324,228.980 300.864,229.200 301.000 C 229.420 301.136,229.600 301.550,229.600 301.921 C 229.600 302.802,233.077 309.800,233.823 310.419 C 234.140 310.682,234.400 311.118,234.400 311.387 C 234.400 311.656,234.760 312.202,235.200 312.600 C 235.640 312.998,236.000 313.532,236.000 313.787 C 236.000 314.042,236.540 314.768,237.200 315.400 C 237.860 316.032,238.400 316.746,238.400 316.986 C 238.400 317.533,243.676 322.800,244.225 322.800 C 244.448 322.800,245.523 323.711,246.615 324.824 C 247.707 325.937,249.230 327.137,250.000 327.491 C 250.770 327.845,251.704 328.392,252.075 328.706 C 253.131 329.602,261.291 333.600,262.062 333.600 C 262.442 333.600,262.864 333.780,263.000 334.000 C 263.136 334.220,263.777 334.400,264.424 334.400 C 265.071 334.400,265.600 334.580,265.600 334.800 C 265.600 335.020,266.140 335.200,266.800 335.200 C 267.460 335.200,268.000 335.380,268.000 335.600 C 268.000 335.822,269.059 336.000,270.376 336.000 C 271.683 336.000,272.864 336.180,273.000 336.400 C 273.153 336.647,276.596 336.800,282.000 336.800 C 287.404 336.800,290.847 336.647,291.000 336.400 C 291.136 336.180,292.137 336.000,293.224 336.000 C 294.311 336.000,295.200 335.820,295.200 335.600 C 295.200 335.380,295.920 335.200,296.800 335.200 C 297.680 335.200,298.400 335.020,298.400 334.800 C 298.400 334.580,298.845 334.400,299.388 334.400 C 299.931 334.400,301.017 334.040,301.800 333.600 C 302.583 333.160,303.458 332.800,303.744 332.800 C 304.388 332.800,307.795 331.096,308.719 330.312 C 309.094 329.994,310.050 329.437,310.845 329.074 C 311.640 328.712,312.517 328.141,312.794 327.807 C 313.071 327.473,313.511 327.200,313.771 327.200 C 314.030 327.200,314.854 326.570,315.600 325.800 C 316.346 325.030,317.150 324.400,317.386 324.400 C 317.938 324.400,325.600 316.721,325.600 316.168 C 325.600 315.938,326.140 315.232,326.800 314.600 C 327.460 313.968,328.000 313.236,328.000 312.974 C 328.000 312.712,328.257 312.285,328.571 312.024 C 329.424 311.316,334.400 301.135,334.400 300.098 C 334.400 299.604,334.580 299.200,334.800 299.200 C 335.020 299.200,335.200 298.660,335.200 298.000 C 335.200 297.340,335.380 296.800,335.600 296.800 C 335.820 296.800,336.000 296.091,336.000 295.224 C 336.000 294.357,336.180 293.536,336.400 293.400 C 336.620 293.264,336.800 292.184,336.800 291.000 C 336.800 289.816,336.980 288.736,337.200 288.600 C 337.443 288.450,337.600 285.537,337.600 281.200 C 337.600 276.863,337.443 273.950,337.200 273.800 C 336.980 273.664,336.800 272.483,336.800 271.176 C 336.800 269.859,336.622 268.800,336.400 268.800 C 336.180 268.800,336.000 268.080,336.000 267.200 C 336.000 266.320,335.820 265.600,335.600 265.600 C 335.380 265.600,335.200 265.071,335.200 264.424 C 335.200 263.777,335.020 263.136,334.800 263.000 C 334.580 262.864,334.400 262.324,334.400 261.800 C 334.400 261.276,334.220 260.736,334.000 260.600 C 333.780 260.464,333.600 260.034,333.600 259.644 C 333.600 258.850,331.998 255.526,331.112 254.481 C 330.794 254.106,330.237 253.150,329.874 252.355 C 329.512 251.560,328.941 250.683,328.607 250.406 C 328.273 250.129,328.000 249.688,328.000 249.426 C 328.000 249.164,327.460 248.432,326.800 247.800 C 326.140 247.168,325.600 246.456,325.600 246.219 C 325.600 245.664,316.724 236.800,316.169 236.800 C 315.938 236.800,315.232 236.260,314.600 235.600 C 313.968 234.940,313.236 234.400,312.974 234.400 C 312.712 234.400,312.284 234.142,312.022 233.826 C 311.403 233.081,302.800 228.800,301.921 228.800 C 301.550 228.800,301.136 228.620,301.000 228.400 C 300.864 228.180,300.324 228.000,299.800 228.000 C 299.276 228.000,298.736 227.820,298.600 227.600 C 298.464 227.380,297.924 227.200,297.400 227.200 C 296.876 227.200,296.336 227.020,296.200 226.800 C 296.064 226.580,295.063 226.400,293.976 226.400 C 292.889 226.400,292.000 226.220,292.000 226.000 C 292.000 225.767,290.675 225.600,288.824 225.600 C 287.077 225.600,285.536 225.420,285.400 225.200 C 285.264 224.980,283.554 224.800,281.600 224.800 C 279.646 224.800,277.936 224.980,277.800 225.200 " stroke="none" fill="#fcf404" fill-rule="evenodd"></path><path id="path1" d="M0.046 199.700 C 0.072 309.535,0.177 399.075,0.280 398.677 C 0.386 398.268,0.754 398.010,1.129 398.082 C 2.058 398.261,2.203 399.492,1.323 399.720 C 0.925 399.823,90.465 399.928,200.300 399.954 L 400.000 400.000 400.000 200.000 L 400.000 0.000 200.000 0.000 L 0.000 0.000 0.046 199.700 M122.600 58.211 C 124.800 58.533,127.500 58.985,128.600 59.216 C 129.700 59.447,131.097 59.739,131.705 59.864 C 132.313 59.990,132.908 60.251,133.029 60.446 C 133.149 60.641,133.676 60.800,134.200 60.800 C 134.724 60.800,135.264 60.980,135.400 61.200 C 135.536 61.420,135.943 61.600,136.305 61.600 C 137.199 61.600,145.936 65.909,146.943 66.847 C 147.387 67.261,147.905 67.600,148.094 67.600 C 148.282 67.600,148.886 68.050,149.436 68.600 C 149.986 69.150,150.606 69.600,150.813 69.600 C 151.303 69.600,158.569 76.885,160.614 79.428 C 161.486 80.512,162.425 81.637,162.700 81.928 C 162.975 82.219,163.200 82.611,163.200 82.800 C 163.200 82.989,163.451 83.394,163.757 83.700 C 164.282 84.225,165.131 85.705,167.685 90.544 C 168.282 91.675,168.777 92.904,168.785 93.276 C 168.793 93.648,168.980 94.064,169.200 94.200 C 169.420 94.336,169.600 94.876,169.600 95.400 C 169.600 95.924,169.780 96.464,170.000 96.600 C 170.220 96.736,170.400 97.199,170.400 97.629 C 170.400 98.059,170.564 98.723,170.765 99.105 C 170.965 99.487,171.314 100.790,171.539 102.000 C 171.764 103.210,172.140 105.159,172.374 106.331 C 174.886 118.892,169.089 141.352,161.328 149.129 C 161.037 149.419,160.800 149.793,160.800 149.958 C 160.800 150.824,150.854 159.970,148.289 161.464 C 147.850 161.719,147.381 162.101,147.246 162.313 C 147.111 162.524,146.156 163.080,145.124 163.548 C 144.093 164.015,143.135 164.581,142.997 164.805 C 142.689 165.303,140.208 166.400,134.200 168.695 C 131.531 169.714,127.188 170.621,122.000 171.240 C 118.187 171.696,108.018 171.378,107.425 170.785 C 107.213 170.573,106.256 170.400,105.298 170.400 C 102.176 170.400,89.324 165.484,86.732 163.297 C 86.364 162.987,85.341 162.344,84.457 161.867 C 80.484 159.724,71.760 151.156,69.678 147.353 C 69.391 146.829,68.998 146.400,68.805 146.400 C 68.612 146.400,68.330 145.995,68.180 145.500 C 68.029 145.005,67.674 144.330,67.390 144.000 C 66.567 143.041,63.200 136.207,63.200 135.495 C 63.200 135.139,63.020 134.736,62.800 134.600 C 62.580 134.464,62.400 133.924,62.400 133.400 C 62.400 132.876,62.241 132.349,62.046 132.229 C 61.851 132.108,61.593 131.513,61.471 130.905 C 61.349 130.297,61.047 128.990,60.799 128.000 C 59.729 123.720,59.452 121.011,59.448 114.800 C 59.445 108.399,59.624 106.237,60.420 103.100 C 60.629 102.275,60.980 100.880,61.200 100.000 C 61.420 99.120,61.811 97.635,62.069 96.700 C 62.593 94.798,66.122 87.180,67.204 85.613 C 67.589 85.056,68.496 83.655,69.219 82.500 C 69.943 81.345,70.657 80.400,70.806 80.400 C 70.956 80.400,71.240 80.053,71.439 79.628 C 71.927 78.584,78.239 72.106,80.434 70.396 C 81.405 69.640,82.290 68.908,82.400 68.770 C 82.510 68.632,83.039 68.288,83.575 68.006 C 84.111 67.723,84.741 67.325,84.975 67.122 C 86.258 66.007,93.029 62.400,93.839 62.400 C 94.106 62.400,95.016 62.060,95.862 61.644 C 102.329 58.467,114.060 56.961,122.600 58.211 M286.810 224.393 C 291.769 224.968,297.004 226.064,298.495 226.839 C 298.877 227.038,299.541 227.200,299.971 227.200 C 300.401 227.200,300.864 227.380,301.000 227.600 C 301.136 227.820,301.557 228.000,301.937 228.000 C 302.978 228.000,310.618 231.934,313.979 234.200 C 317.340 236.467,324.326 243.313,327.246 247.200 C 328.320 248.630,329.469 250.152,329.799 250.581 C 330.130 251.011,330.400 251.503,330.400 251.674 C 330.400 251.846,331.095 253.121,331.944 254.508 C 332.793 255.896,333.885 258.194,334.370 259.615 C 334.855 261.037,335.400 262.560,335.581 263.000 C 335.904 263.788,336.451 265.759,337.163 268.700 C 341.637 287.178,335.783 307.021,321.744 320.972 C 317.193 325.493,314.354 328.000,313.783 328.000 C 313.607 328.000,313.137 328.295,312.739 328.655 C 310.993 330.235,302.047 334.524,298.300 335.578 C 297.475 335.810,296.202 336.180,295.472 336.400 C 294.741 336.620,293.517 336.800,292.752 336.800 C 291.986 336.800,291.189 336.970,290.980 337.178 C 290.363 337.792,279.766 338.101,276.000 337.615 C 269.423 336.765,268.166 336.508,264.400 335.240 C 260.663 333.982,252.868 330.383,251.896 329.467 C 251.623 329.210,250.830 328.730,250.132 328.400 C 248.907 327.820,246.969 326.220,241.896 321.600 C 240.567 320.390,238.421 318.050,237.127 316.400 C 233.772 312.121,233.600 311.880,233.600 311.450 C 233.600 311.237,233.353 310.779,233.051 310.431 C 232.118 309.359,228.800 302.766,228.800 301.985 C 228.800 301.579,228.620 301.136,228.400 301.000 C 228.180 300.864,228.000 300.324,228.000 299.800 C 228.000 299.276,227.851 298.755,227.668 298.642 C 227.486 298.530,227.107 297.394,226.826 296.119 C 226.544 294.843,226.167 293.350,225.988 292.800 C 225.310 290.725,225.058 287.597,225.052 281.200 C 225.045 273.411,225.643 269.452,227.929 262.135 C 228.783 259.403,232.191 252.809,234.635 249.160 C 236.863 245.835,245.128 236.800,245.942 236.800 C 246.089 236.800,246.667 236.375,247.227 235.855 C 247.787 235.336,248.674 234.681,249.198 234.401 C 249.721 234.121,250.341 233.734,250.575 233.540 C 252.270 232.139,258.484 228.800,259.397 228.800 C 259.687 228.800,260.616 228.460,261.462 228.044 C 267.477 225.089,278.778 223.461,286.810 224.393 " stroke="none" fill="#040404" fill-rule="evenodd"></path><path id="path2" d="M112.000 58.400 C 112.000 58.633,110.675 58.800,108.824 58.800 C 107.077 58.800,105.536 58.980,105.400 59.200 C 105.264 59.420,104.364 59.600,103.400 59.600 C 102.436 59.600,101.536 59.780,101.400 60.000 C 101.264 60.220,100.724 60.400,100.200 60.400 C 99.676 60.400,99.136 60.580,99.000 60.800 C 98.864 61.020,98.223 61.200,97.576 61.200 C 96.929 61.200,96.400 61.380,96.400 61.600 C 96.400 61.820,96.040 62.000,95.600 62.000 C 95.160 62.000,94.800 62.180,94.800 62.400 C 94.800 62.620,94.260 62.800,93.600 62.800 C 92.940 62.800,92.400 62.980,92.400 63.200 C 92.400 63.420,92.040 63.600,91.600 63.600 C 91.160 63.600,90.800 63.780,90.800 64.000 C 90.800 64.220,90.440 64.400,90.000 64.400 C 89.560 64.400,89.200 64.580,89.200 64.800 C 89.200 65.020,88.868 65.200,88.462 65.200 C 88.056 65.200,87.398 65.560,87.000 66.000 C 86.602 66.440,86.062 66.800,85.800 66.800 C 85.538 66.800,84.998 67.160,84.600 67.600 C 84.202 68.040,83.701 68.400,83.487 68.400 C 82.602 68.400,72.460 77.980,71.588 79.640 C 71.310 80.168,70.839 80.744,70.542 80.920 C 70.244 81.096,70.000 81.473,70.000 81.758 C 70.000 82.043,69.640 82.602,69.200 83.000 C 68.760 83.398,68.400 83.944,68.400 84.213 C 68.400 84.482,68.139 84.919,67.819 85.184 C 67.139 85.749,65.200 89.520,65.200 90.279 C 65.200 90.565,65.020 90.800,64.800 90.800 C 64.580 90.800,64.400 91.160,64.400 91.600 C 64.400 92.040,64.220 92.400,64.000 92.400 C 63.780 92.400,63.600 92.749,63.600 93.176 C 63.600 93.603,63.420 94.064,63.200 94.200 C 62.980 94.336,62.800 94.887,62.800 95.424 C 62.800 95.961,62.620 96.400,62.400 96.400 C 62.180 96.400,62.000 97.109,62.000 97.976 C 62.000 98.843,61.820 99.664,61.600 99.800 C 61.380 99.936,61.200 100.656,61.200 101.400 C 61.200 102.144,61.020 102.864,60.800 103.000 C 60.580 103.136,60.400 104.317,60.400 105.624 C 60.400 106.941,60.222 108.000,60.000 108.000 C 59.749 108.000,59.600 110.533,59.600 114.800 C 59.600 119.067,59.749 121.600,60.000 121.600 C 60.222 121.600,60.400 122.659,60.400 123.976 C 60.400 125.283,60.580 126.464,60.800 126.600 C 61.020 126.736,61.200 127.456,61.200 128.200 C 61.200 128.944,61.380 129.664,61.600 129.800 C 61.820 129.936,62.000 130.476,62.000 131.000 C 62.000 131.524,62.180 132.064,62.400 132.200 C 62.620 132.336,62.800 132.876,62.800 133.400 C 62.800 133.924,62.980 134.464,63.200 134.600 C 63.420 134.736,63.600 135.377,63.600 136.024 C 63.600 136.671,63.735 137.201,63.900 137.203 C 64.259 137.207,65.200 139.144,65.200 139.880 C 65.200 140.166,65.380 140.400,65.600 140.400 C 65.820 140.400,66.000 140.760,66.000 141.200 C 66.000 141.640,66.159 142.000,66.353 142.000 C 66.548 142.000,66.810 142.315,66.936 142.700 C 67.352 143.968,70.138 148.131,71.499 149.518 C 71.995 150.023,72.400 150.599,72.400 150.799 C 72.400 151.269,77.852 156.800,78.315 156.800 C 78.510 156.800,79.580 157.687,80.692 158.770 C 81.805 159.854,83.421 161.101,84.284 161.541 C 85.147 161.981,86.089 162.625,86.376 162.971 C 86.663 163.317,87.236 163.600,87.649 163.600 C 88.062 163.600,88.400 163.780,88.400 164.000 C 88.400 164.220,88.760 164.400,89.200 164.400 C 89.640 164.400,90.000 164.580,90.000 164.800 C 90.000 165.020,90.360 165.200,90.800 165.200 C 91.240 165.200,91.600 165.380,91.600 165.600 C 91.600 165.820,91.834 166.000,92.120 166.000 C 92.856 166.000,94.793 166.941,94.797 167.300 C 94.799 167.465,95.329 167.600,95.976 167.600 C 96.623 167.600,97.264 167.780,97.400 168.000 C 97.536 168.220,98.076 168.400,98.600 168.400 C 99.124 168.400,99.664 168.580,99.800 168.800 C 99.936 169.020,100.476 169.200,101.000 169.200 C 101.524 169.200,102.064 169.380,102.200 169.600 C 102.336 169.820,103.517 170.000,104.824 170.000 C 106.141 170.000,107.200 170.178,107.200 170.400 C 107.200 170.945,125.463 170.945,125.800 170.400 C 125.936 170.180,126.836 170.000,127.800 170.000 C 128.764 170.000,129.664 169.820,129.800 169.600 C 129.936 169.380,130.656 169.200,131.400 169.200 C 132.144 169.200,132.864 169.020,133.000 168.800 C 133.136 168.580,133.676 168.400,134.200 168.400 C 134.724 168.400,135.264 168.220,135.400 168.000 C 135.536 167.780,135.997 167.600,136.424 167.600 C 136.851 167.600,137.200 167.420,137.200 167.200 C 137.200 166.980,137.639 166.800,138.176 166.800 C 138.713 166.800,139.264 166.620,139.400 166.400 C 139.536 166.180,139.997 166.000,140.424 166.000 C 140.851 166.000,141.200 165.820,141.200 165.600 C 141.200 165.380,141.560 165.200,142.000 165.200 C 142.440 165.200,142.800 165.048,142.800 164.863 C 142.800 164.677,143.655 164.099,144.700 163.577 C 146.337 162.759,147.214 162.180,149.400 160.476 C 149.620 160.305,150.421 159.722,151.180 159.182 C 153.684 157.400,162.800 147.786,162.800 146.927 C 162.800 146.720,163.115 146.202,163.500 145.775 C 164.397 144.781,166.000 141.695,166.000 140.962 C 166.000 140.653,166.180 140.400,166.400 140.400 C 166.620 140.400,166.800 140.040,166.800 139.600 C 166.800 139.160,166.980 138.800,167.200 138.800 C 167.420 138.800,167.600 138.440,167.600 138.000 C 167.600 137.560,167.780 137.200,168.000 137.200 C 168.220 137.200,168.400 136.840,168.400 136.400 C 168.400 135.960,168.580 135.600,168.800 135.600 C 169.020 135.600,169.200 135.071,169.200 134.424 C 169.200 133.777,169.380 133.136,169.600 133.000 C 169.820 132.864,170.000 132.324,170.000 131.800 C 170.000 131.276,170.180 130.736,170.400 130.600 C 170.620 130.464,170.800 129.744,170.800 129.000 C 170.800 128.256,170.980 127.536,171.200 127.400 C 171.420 127.264,171.600 126.083,171.600 124.776 C 171.600 123.459,171.778 122.400,172.000 122.400 C 172.253 122.400,172.400 119.608,172.400 114.824 C 172.400 110.204,172.244 107.151,172.000 107.000 C 171.780 106.864,171.600 105.784,171.600 104.600 C 171.600 103.416,171.420 102.336,171.200 102.200 C 170.980 102.064,170.800 101.344,170.800 100.600 C 170.800 99.856,170.620 99.136,170.400 99.000 C 170.180 98.864,170.000 98.223,170.000 97.576 C 170.000 96.929,169.820 96.400,169.600 96.400 C 169.380 96.400,169.200 95.860,169.200 95.200 C 169.200 94.540,169.020 94.000,168.800 94.000 C 168.580 94.000,168.400 93.460,168.400 92.800 C 168.400 92.140,168.220 91.600,168.000 91.600 C 167.780 91.600,167.600 91.240,167.600 90.800 C 167.600 90.360,167.420 90.000,167.200 90.000 C 166.980 90.000,166.800 89.640,166.800 89.200 C 166.800 88.760,166.641 88.400,166.447 88.400 C 166.253 88.400,165.619 87.429,165.038 86.241 C 164.457 85.054,163.716 83.862,163.391 83.592 C 163.066 83.323,162.800 82.921,162.800 82.700 C 162.800 81.883,151.685 70.000,150.921 70.000 C 150.717 70.000,150.032 69.460,149.400 68.800 C 148.768 68.140,148.036 67.600,147.774 67.600 C 147.512 67.600,147.077 67.334,146.807 67.008 C 146.224 66.307,144.102 65.200,143.339 65.200 C 143.042 65.200,142.800 65.020,142.800 64.800 C 142.800 64.580,142.440 64.400,142.000 64.400 C 141.560 64.400,141.200 64.220,141.200 64.000 C 141.200 63.780,140.840 63.600,140.400 63.600 C 139.960 63.600,139.600 63.420,139.600 63.200 C 139.600 62.980,139.240 62.800,138.800 62.800 C 138.360 62.800,138.000 62.620,138.000 62.400 C 138.000 62.180,137.460 62.000,136.800 62.000 C 136.140 62.000,135.600 61.820,135.600 61.600 C 135.600 61.380,135.071 61.200,134.424 61.200 C 133.777 61.200,133.136 61.020,133.000 60.800 C 132.864 60.580,132.324 60.400,131.800 60.400 C 131.276 60.400,130.736 60.220,130.600 60.000 C 130.464 59.780,129.564 59.600,128.600 59.600 C 127.636 59.600,126.736 59.420,126.600 59.200 C 126.464 58.980,124.923 58.800,123.176 58.800 C 121.325 58.800,120.000 58.633,120.000 58.400 C 120.000 58.160,118.400 58.000,116.000 58.000 C 113.600 58.000,112.000 58.160,112.000 58.400 M119.800 58.800 C 119.936 59.020,121.477 59.200,123.224 59.200 C 125.075 59.200,126.400 59.367,126.400 59.600 C 126.400 59.820,127.300 60.000,128.400 60.000 C 129.500 60.000,130.400 60.180,130.400 60.400 C 130.400 60.620,130.929 60.800,131.576 60.800 C 132.223 60.800,132.864 60.980,133.000 61.200 C 133.136 61.420,133.676 61.600,134.200 61.600 C 134.724 61.600,135.264 61.780,135.400 62.000 C 135.536 62.220,135.950 62.400,136.321 62.400 C 137.200 62.400,145.803 66.681,146.422 67.426 C 146.684 67.742,147.112 68.000,147.374 68.000 C 147.636 68.000,148.368 68.540,149.000 69.200 C 149.632 69.860,150.338 70.400,150.569 70.400 C 151.124 70.400,160.000 79.264,160.000 79.819 C 160.000 80.056,160.540 80.768,161.200 81.400 C 161.860 82.032,162.400 82.764,162.400 83.026 C 162.400 83.288,162.673 83.729,163.007 84.006 C 163.341 84.283,163.912 85.160,164.274 85.955 C 164.637 86.750,165.194 87.706,165.512 88.081 C 166.398 89.126,168.000 92.450,168.000 93.244 C 168.000 93.634,168.180 94.064,168.400 94.200 C 168.620 94.336,168.800 94.876,168.800 95.400 C 168.800 95.924,168.980 96.464,169.200 96.600 C 169.420 96.736,169.600 97.276,169.600 97.800 C 169.600 98.324,169.780 98.864,170.000 99.000 C 170.220 99.136,170.400 99.957,170.400 100.824 C 170.400 101.691,170.580 102.400,170.800 102.400 C 171.022 102.400,171.200 103.459,171.200 104.776 C 171.200 106.083,171.380 107.264,171.600 107.400 C 171.843 107.550,172.000 110.463,172.000 114.800 C 172.000 119.137,171.843 122.050,171.600 122.200 C 171.380 122.336,171.200 123.517,171.200 124.824 C 171.200 126.141,171.022 127.200,170.800 127.200 C 170.580 127.200,170.400 127.920,170.400 128.800 C 170.400 129.680,170.220 130.400,170.000 130.400 C 169.780 130.400,169.600 130.929,169.600 131.576 C 169.600 132.223,169.420 132.864,169.200 133.000 C 168.980 133.136,168.800 133.551,168.800 133.921 C 168.800 134.798,163.716 145.006,162.971 145.624 C 162.657 145.885,162.400 146.312,162.400 146.574 C 162.400 146.836,161.860 147.568,161.200 148.200 C 160.540 148.832,160.000 149.538,160.000 149.768 C 160.000 150.321,152.338 158.000,151.786 158.000 C 151.550 158.000,150.746 158.630,150.000 159.400 C 149.254 160.170,148.430 160.800,148.171 160.800 C 147.911 160.800,147.471 161.073,147.194 161.407 C 146.917 161.741,146.040 162.312,145.245 162.674 C 144.450 163.037,143.494 163.594,143.119 163.912 C 142.195 164.696,138.788 166.400,138.144 166.400 C 137.858 166.400,136.983 166.760,136.200 167.200 C 135.417 167.640,134.331 168.000,133.788 168.000 C 133.245 168.000,132.800 168.180,132.800 168.400 C 132.800 168.620,132.080 168.800,131.200 168.800 C 130.320 168.800,129.600 168.980,129.600 169.200 C 129.600 169.420,128.711 169.600,127.624 169.600 C 126.537 169.600,125.536 169.780,125.400 170.000 C 125.065 170.541,107.735 170.541,107.400 170.000 C 107.264 169.780,106.083 169.600,104.776 169.600 C 103.459 169.600,102.400 169.422,102.400 169.200 C 102.400 168.980,101.860 168.800,101.200 168.800 C 100.540 168.800,100.000 168.620,100.000 168.400 C 100.000 168.180,99.471 168.000,98.824 168.000 C 98.177 168.000,97.536 167.820,97.400 167.600 C 97.264 167.380,96.842 167.200,96.462 167.200 C 95.691 167.200,87.531 163.202,86.475 162.306 C 86.104 161.992,85.170 161.445,84.400 161.091 C 83.630 160.737,82.107 159.537,81.015 158.424 C 79.923 157.311,78.848 156.400,78.626 156.400 C 78.079 156.400,73.200 151.535,73.200 150.990 C 73.200 150.752,72.570 149.946,71.800 149.200 C 71.030 148.454,70.400 147.636,70.400 147.384 C 70.400 147.131,70.040 146.598,69.600 146.200 C 69.160 145.802,68.800 145.256,68.800 144.987 C 68.800 144.718,68.540 144.282,68.223 144.019 C 67.477 143.400,64.000 136.402,64.000 135.521 C 64.000 135.150,63.820 134.736,63.600 134.600 C 63.380 134.464,63.200 133.823,63.200 133.176 C 63.200 132.529,63.020 132.000,62.800 132.000 C 62.580 132.000,62.400 131.460,62.400 130.800 C 62.400 130.140,62.220 129.600,62.000 129.600 C 61.780 129.600,61.600 128.891,61.600 128.024 C 61.600 127.157,61.420 126.336,61.200 126.200 C 60.980 126.064,60.800 124.984,60.800 123.800 C 60.800 122.616,60.620 121.536,60.400 121.400 C 60.161 121.252,60.000 118.604,60.000 114.800 C 60.000 110.996,60.161 108.348,60.400 108.200 C 60.620 108.064,60.800 106.883,60.800 105.576 C 60.800 104.259,60.978 103.200,61.200 103.200 C 61.420 103.200,61.600 102.491,61.600 101.624 C 61.600 100.757,61.780 99.936,62.000 99.800 C 62.220 99.664,62.400 98.944,62.400 98.200 C 62.400 97.456,62.580 96.736,62.800 96.600 C 63.020 96.464,63.200 96.050,63.200 95.679 C 63.200 94.800,67.481 86.197,68.226 85.578 C 68.542 85.316,68.800 84.882,68.800 84.613 C 68.800 84.344,69.160 83.798,69.600 83.400 C 70.040 83.002,70.400 82.462,70.400 82.200 C 70.400 81.938,70.760 81.398,71.200 81.000 C 71.640 80.602,72.000 80.082,72.000 79.845 C 72.000 79.280,80.055 71.200,80.618 71.200 C 80.856 71.200,81.568 70.660,82.200 70.000 C 82.832 69.340,83.558 68.800,83.813 68.800 C 84.068 68.800,84.602 68.440,85.000 68.000 C 85.398 67.560,85.944 67.200,86.213 67.200 C 86.482 67.200,86.919 66.938,87.185 66.618 C 87.731 65.960,93.147 63.200,93.891 63.200 C 94.158 63.200,95.017 62.840,95.800 62.400 C 96.583 61.960,97.568 61.600,97.989 61.600 C 98.409 61.600,98.864 61.420,99.000 61.200 C 99.136 60.980,99.777 60.800,100.424 60.800 C 101.071 60.800,101.600 60.620,101.600 60.400 C 101.600 60.180,102.500 60.000,103.600 60.000 C 104.700 60.000,105.600 59.820,105.600 59.600 C 105.600 59.367,106.925 59.200,108.776 59.200 C 110.523 59.200,112.064 59.020,112.200 58.800 C 112.336 58.580,114.046 58.400,116.000 58.400 C 117.954 58.400,119.664 58.580,119.800 58.800 M277.200 224.777 C 276.870 225.003,275.396 225.191,273.924 225.194 C 272.452 225.197,271.136 225.380,271.000 225.600 C 270.864 225.820,269.964 226.000,269.000 226.000 C 268.036 226.000,267.136 226.180,267.000 226.400 C 266.864 226.620,266.223 226.800,265.576 226.800 C 264.929 226.800,264.400 226.980,264.400 227.200 C 264.400 227.420,263.860 227.600,263.200 227.600 C 262.540 227.600,262.000 227.780,262.000 228.000 C 262.000 228.220,261.640 228.400,261.200 228.400 C 260.760 228.400,260.400 228.580,260.400 228.800 C 260.400 229.020,259.860 229.200,259.200 229.200 C 258.540 229.200,258.000 229.380,258.000 229.600 C 258.000 229.820,257.766 230.000,257.480 230.000 C 256.744 230.000,254.807 230.941,254.803 231.300 C 254.801 231.465,254.468 231.600,254.062 231.600 C 253.656 231.600,252.998 231.960,252.600 232.400 C 252.202 232.840,251.662 233.200,251.400 233.200 C 251.138 233.200,250.598 233.560,250.200 234.000 C 249.802 234.440,249.268 234.800,249.013 234.800 C 248.758 234.800,248.032 235.340,247.400 236.000 C 246.768 236.660,246.098 237.200,245.911 237.200 C 245.460 237.200,237.200 245.473,237.200 245.924 C 237.200 246.118,236.840 246.602,236.400 247.000 C 235.960 247.398,235.600 247.938,235.600 248.200 C 235.600 248.462,235.240 249.002,234.800 249.400 C 234.360 249.798,234.000 250.344,234.000 250.613 C 234.000 250.882,233.739 251.319,233.419 251.584 C 232.739 252.149,230.800 255.920,230.800 256.679 C 230.800 256.965,230.620 257.200,230.400 257.200 C 230.180 257.200,230.000 257.560,230.000 258.000 C 230.000 258.440,229.820 258.800,229.600 258.800 C 229.380 258.800,229.200 259.160,229.200 259.600 C 229.200 260.040,229.020 260.400,228.800 260.400 C 228.580 260.400,228.400 260.940,228.400 261.600 C 228.400 262.260,228.220 262.800,228.000 262.800 C 227.780 262.800,227.600 263.520,227.600 264.400 C 227.600 265.280,227.420 266.000,227.200 266.000 C 226.980 266.000,226.800 266.709,226.800 267.576 C 226.800 268.443,226.620 269.264,226.400 269.400 C 226.180 269.536,226.000 270.717,226.000 272.024 C 226.000 273.341,225.822 274.400,225.600 274.400 C 225.349 274.400,225.200 276.933,225.200 281.200 C 225.200 285.467,225.349 288.000,225.600 288.000 C 225.822 288.000,226.000 289.059,226.000 290.376 C 226.000 291.683,226.180 292.864,226.400 293.000 C 226.620 293.136,226.800 293.856,226.800 294.600 C 226.800 295.344,226.980 296.064,227.200 296.200 C 227.420 296.336,227.600 296.876,227.600 297.400 C 227.600 297.924,227.780 298.464,228.000 298.600 C 228.220 298.736,228.400 299.377,228.400 300.024 C 228.400 300.671,228.580 301.200,228.800 301.200 C 229.020 301.200,229.200 301.740,229.200 302.400 C 229.200 303.060,229.380 303.600,229.600 303.600 C 229.820 303.600,230.000 303.960,230.000 304.400 C 230.000 304.840,230.180 305.200,230.400 305.200 C 230.620 305.200,230.800 305.560,230.800 306.000 C 230.800 306.440,230.980 306.800,231.200 306.800 C 231.420 306.800,231.600 307.160,231.600 307.600 C 231.600 308.040,231.780 308.400,232.000 308.400 C 232.220 308.400,232.400 308.760,232.400 309.200 C 232.400 309.640,232.559 310.000,232.754 310.000 C 232.949 310.000,233.406 310.585,233.768 311.300 C 234.131 312.015,235.050 313.410,235.810 314.400 C 236.571 315.390,237.509 316.649,237.896 317.198 C 238.906 318.630,243.517 323.200,243.952 323.200 C 244.154 323.200,245.231 324.093,246.346 325.185 C 247.461 326.277,249.087 327.534,249.960 327.979 C 250.832 328.424,251.652 328.960,251.781 329.169 C 252.088 329.665,254.370 330.800,255.061 330.800 C 255.358 330.800,255.600 330.980,255.600 331.200 C 255.600 331.420,255.960 331.600,256.400 331.600 C 256.840 331.600,257.200 331.780,257.200 332.000 C 257.200 332.220,257.434 332.400,257.720 332.400 C 258.456 332.400,260.393 333.341,260.397 333.700 C 260.399 333.865,260.929 334.000,261.576 334.000 C 262.223 334.000,262.864 334.180,263.000 334.400 C 263.136 334.620,263.676 334.800,264.200 334.800 C 264.724 334.800,265.264 334.980,265.400 335.200 C 265.536 335.420,266.076 335.600,266.600 335.600 C 267.124 335.600,267.664 335.780,267.800 336.000 C 267.936 336.220,269.016 336.400,270.200 336.400 C 271.384 336.400,272.464 336.580,272.600 336.800 C 272.753 337.048,276.337 337.200,282.024 337.200 C 287.875 337.200,291.200 337.055,291.200 336.800 C 291.200 336.580,292.089 336.400,293.176 336.400 C 294.263 336.400,295.264 336.220,295.400 336.000 C 295.536 335.780,296.256 335.600,297.000 335.600 C 297.744 335.600,298.464 335.420,298.600 335.200 C 298.736 334.980,299.276 334.800,299.800 334.800 C 300.324 334.800,300.864 334.620,301.000 334.400 C 301.136 334.180,301.597 334.000,302.024 334.000 C 302.451 334.000,302.800 333.820,302.800 333.600 C 302.800 333.380,303.239 333.200,303.776 333.200 C 304.313 333.200,304.864 333.020,305.000 332.800 C 305.136 332.580,305.597 332.400,306.024 332.400 C 306.451 332.400,306.800 332.220,306.800 332.000 C 306.800 331.780,307.120 331.600,307.512 331.600 C 307.903 331.600,308.483 331.240,308.800 330.800 C 309.117 330.360,309.621 330.000,309.921 330.000 C 310.665 330.000,314.761 327.273,316.060 325.911 C 316.644 325.300,317.321 324.800,317.566 324.800 C 318.062 324.800,325.762 317.228,325.515 316.982 C 325.429 316.896,323.662 318.530,321.587 320.613 C 319.513 322.696,317.623 324.400,317.386 324.400 C 317.150 324.400,316.346 325.030,315.600 325.800 C 314.854 326.570,314.030 327.200,313.771 327.200 C 313.511 327.200,313.071 327.473,312.794 327.807 C 312.517 328.141,311.640 328.712,310.845 329.074 C 310.050 329.437,309.094 329.994,308.719 330.312 C 307.795 331.096,304.388 332.800,303.744 332.800 C 303.458 332.800,302.583 333.160,301.800 333.600 C 301.017 334.040,299.931 334.400,299.388 334.400 C 298.845 334.400,298.400 334.580,298.400 334.800 C 298.400 335.020,297.680 335.200,296.800 335.200 C 295.920 335.200,295.200 335.380,295.200 335.600 C 295.200 335.820,294.311 336.000,293.224 336.000 C 292.137 336.000,291.136 336.180,291.000 336.400 C 290.847 336.647,287.404 336.800,282.000 336.800 C 276.596 336.800,273.153 336.647,273.000 336.400 C 272.864 336.180,271.683 336.000,270.376 336.000 C 269.059 336.000,268.000 335.822,268.000 335.600 C 268.000 335.380,267.460 335.200,266.800 335.200 C 266.140 335.200,265.600 335.020,265.600 334.800 C 265.600 334.580,265.071 334.400,264.424 334.400 C 263.777 334.400,263.136 334.220,263.000 334.000 C 262.864 333.780,262.442 333.600,262.062 333.600 C 261.291 333.600,253.131 329.602,252.075 328.706 C 251.704 328.392,250.770 327.845,250.000 327.491 C 249.230 327.137,247.707 325.937,246.615 324.824 C 245.523 323.711,244.438 322.800,244.204 322.800 C 243.657 322.800,238.400 317.515,238.400 316.965 C 238.400 316.736,237.860 316.032,237.200 315.400 C 236.540 314.768,236.000 314.042,236.000 313.787 C 236.000 313.532,235.640 312.998,235.200 312.600 C 234.760 312.202,234.400 311.656,234.400 311.387 C 234.400 311.118,234.140 310.682,233.823 310.419 C 233.077 309.800,229.600 302.802,229.600 301.921 C 229.600 301.550,229.420 301.136,229.200 301.000 C 228.980 300.864,228.800 300.324,228.800 299.800 C 228.800 299.276,228.620 298.736,228.400 298.600 C 228.180 298.464,228.000 297.823,228.000 297.176 C 228.000 296.529,227.820 296.000,227.600 296.000 C 227.380 296.000,227.200 295.280,227.200 294.400 C 227.200 293.520,227.020 292.800,226.800 292.800 C 226.578 292.800,226.400 291.741,226.400 290.424 C 226.400 289.117,226.220 287.936,226.000 287.800 C 225.761 287.652,225.600 285.004,225.600 281.200 C 225.600 277.396,225.761 274.748,226.000 274.600 C 226.220 274.464,226.400 273.294,226.400 272.000 C 226.400 270.706,226.580 269.536,226.800 269.400 C 227.020 269.264,227.200 268.544,227.200 267.800 C 227.200 267.056,227.380 266.336,227.600 266.200 C 227.820 266.064,228.000 265.344,228.000 264.600 C 228.000 263.856,228.180 263.136,228.400 263.000 C 228.620 262.864,228.800 262.450,228.800 262.079 C 228.800 261.200,233.081 252.597,233.826 251.978 C 234.142 251.716,234.400 251.282,234.400 251.013 C 234.400 250.744,234.760 250.198,235.200 249.800 C 235.640 249.402,236.000 248.862,236.000 248.600 C 236.000 248.338,236.360 247.798,236.800 247.400 C 237.240 247.002,237.600 246.476,237.600 246.231 C 237.600 245.667,245.668 237.600,246.232 237.600 C 246.462 237.600,247.168 237.060,247.800 236.400 C 248.432 235.740,249.158 235.200,249.413 235.200 C 249.668 235.200,250.202 234.840,250.600 234.400 C 250.998 233.960,251.544 233.600,251.813 233.600 C 252.082 233.600,252.519 233.338,252.785 233.018 C 253.331 232.360,258.747 229.600,259.491 229.600 C 259.758 229.600,260.617 229.240,261.400 228.800 C 262.183 228.360,263.168 228.000,263.589 228.000 C 264.009 228.000,264.464 227.820,264.600 227.600 C 264.736 227.380,265.276 227.200,265.800 227.200 C 266.324 227.200,266.864 227.020,267.000 226.800 C 267.136 226.580,268.137 226.400,269.224 226.400 C 270.311 226.400,271.200 226.220,271.200 226.000 C 271.200 225.767,272.525 225.600,274.376 225.600 C 276.123 225.600,277.664 225.420,277.800 225.200 C 277.936 224.980,279.646 224.800,281.600 224.800 C 283.554 224.800,285.264 224.980,285.400 225.200 C 285.536 225.420,287.077 225.600,288.824 225.600 C 290.675 225.600,292.000 225.767,292.000 226.000 C 292.000 226.220,292.889 226.400,293.976 226.400 C 295.063 226.400,296.064 226.580,296.200 226.800 C 296.336 227.020,296.876 227.200,297.400 227.200 C 297.924 227.200,298.464 227.380,298.600 227.600 C 298.736 227.820,299.276 228.000,299.800 228.000 C 300.324 228.000,300.864 228.180,301.000 228.400 C 301.136 228.620,301.550 228.800,301.921 228.800 C 302.800 228.800,311.403 233.081,312.022 233.826 C 312.284 234.142,312.712 234.400,312.974 234.400 C 313.236 234.400,313.968 234.940,314.600 235.600 C 315.232 236.260,315.944 236.800,316.181 236.800 C 316.736 236.800,325.600 245.676,325.600 246.231 C 325.600 246.462,326.140 247.168,326.800 247.800 C 327.460 248.432,328.000 249.164,328.000 249.426 C 328.000 249.688,328.273 250.129,328.607 250.406 C 328.941 250.683,329.512 251.560,329.874 252.355 C 330.237 253.150,330.794 254.106,331.112 254.481 C 331.998 255.526,333.600 258.850,333.600 259.644 C 333.600 260.034,333.780 260.464,334.000 260.600 C 334.220 260.736,334.400 261.276,334.400 261.800 C 334.400 262.324,334.580 262.864,334.800 263.000 C 335.020 263.136,335.200 263.777,335.200 264.424 C 335.200 265.071,335.380 265.600,335.600 265.600 C 335.820 265.600,336.000 266.320,336.000 267.200 C 336.000 268.080,336.180 268.800,336.400 268.800 C 336.622 268.800,336.800 269.859,336.800 271.176 C 336.800 272.483,336.980 273.664,337.200 273.800 C 337.443 273.950,337.600 276.863,337.600 281.200 C 337.600 285.537,337.443 288.450,337.200 288.600 C 336.980 288.736,336.800 289.816,336.800 291.000 C 336.800 292.184,336.620 293.264,336.400 293.400 C 336.180 293.536,336.000 294.357,336.000 295.224 C 336.000 296.091,335.820 296.800,335.600 296.800 C 335.380 296.800,335.200 297.340,335.200 298.000 C 335.200 298.660,335.020 299.200,334.800 299.200 C 334.580 299.200,334.400 299.604,334.400 300.098 C 334.400 301.135,329.424 311.316,328.571 312.024 C 328.257 312.285,328.000 312.712,328.000 312.974 C 328.000 313.236,327.460 313.968,326.800 314.600 C 326.140 315.232,325.600 315.915,325.600 316.117 C 325.600 316.786,327.624 314.626,328.427 313.100 C 328.861 312.275,329.393 311.600,329.608 311.600 C 329.824 311.600,330.000 311.366,330.000 311.080 C 330.000 310.344,330.941 308.407,331.300 308.403 C 331.465 308.401,331.600 308.040,331.600 307.600 C 331.600 307.160,331.780 306.800,332.000 306.800 C 332.220 306.800,332.400 306.440,332.400 306.000 C 332.400 305.560,332.580 305.200,332.800 305.200 C 333.020 305.200,333.200 304.840,333.200 304.400 C 333.200 303.960,333.380 303.600,333.600 303.600 C 333.820 303.600,334.000 303.251,334.000 302.824 C 334.000 302.397,334.180 301.936,334.400 301.800 C 334.620 301.664,334.800 301.124,334.800 300.600 C 334.800 300.076,334.980 299.536,335.200 299.400 C 335.420 299.264,335.600 298.724,335.600 298.200 C 335.600 297.676,335.780 297.136,336.000 297.000 C 336.220 296.864,336.400 296.144,336.400 295.400 C 336.400 294.656,336.580 293.936,336.800 293.800 C 337.020 293.664,337.200 292.483,337.200 291.176 C 337.200 289.859,337.378 288.800,337.600 288.800 C 337.853 288.800,338.000 286.000,338.000 281.200 C 338.000 276.400,337.853 273.600,337.600 273.600 C 337.378 273.600,337.200 272.541,337.200 271.224 C 337.200 269.917,337.020 268.736,336.800 268.600 C 336.580 268.464,336.400 267.744,336.400 267.000 C 336.400 266.256,336.220 265.536,336.000 265.400 C 335.780 265.264,335.600 264.724,335.600 264.200 C 335.600 263.676,335.420 263.136,335.200 263.000 C 334.980 262.864,334.800 262.223,334.800 261.576 C 334.800 260.929,334.620 260.400,334.400 260.400 C 334.180 260.400,334.000 259.860,334.000 259.200 C 334.000 258.540,333.820 258.000,333.600 258.000 C 333.380 258.000,333.200 257.640,333.200 257.200 C 333.200 256.760,333.020 256.400,332.800 256.400 C 332.580 256.400,332.400 256.040,332.400 255.600 C 332.400 255.160,332.241 254.800,332.047 254.800 C 331.853 254.800,331.219 253.829,330.638 252.641 C 330.057 251.454,329.316 250.262,328.991 249.992 C 328.666 249.723,328.400 249.321,328.400 249.100 C 328.400 248.278,317.311 236.400,316.543 236.400 C 316.321 236.400,315.706 235.938,315.176 235.374 C 314.646 234.810,313.624 234.069,312.906 233.729 C 312.188 233.388,311.600 232.949,311.600 232.754 C 311.600 232.559,311.240 232.400,310.800 232.400 C 310.360 232.400,310.000 232.220,310.000 232.000 C 310.000 231.780,309.640 231.600,309.200 231.600 C 308.760 231.600,308.400 231.420,308.400 231.200 C 308.400 230.980,308.040 230.800,307.600 230.800 C 307.160 230.800,306.800 230.620,306.800 230.400 C 306.800 230.180,306.440 230.000,306.000 230.000 C 305.560 230.000,305.200 229.820,305.200 229.600 C 305.200 229.380,304.840 229.200,304.400 229.200 C 303.960 229.200,303.600 229.020,303.600 228.800 C 303.600 228.580,303.060 228.400,302.400 228.400 C 301.740 228.400,301.200 228.220,301.200 228.000 C 301.200 227.780,300.660 227.600,300.000 227.600 C 299.340 227.600,298.800 227.420,298.800 227.200 C 298.800 226.980,298.271 226.800,297.624 226.800 C 296.977 226.800,296.336 226.620,296.200 226.400 C 296.064 226.180,295.189 226.000,294.256 226.000 C 293.323 226.000,292.389 225.835,292.180 225.634 C 291.429 224.909,278.118 224.148,277.200 224.777 " stroke="none" fill="#2c2c04" fill-rule="evenodd"></path><path id="path3" d="M114.512 57.895 C 115.564 57.977,117.184 57.976,118.112 57.892 C 119.040 57.808,118.180 57.741,116.200 57.742 C 114.220 57.743,113.460 57.812,114.512 57.895 M107.600 58.400 L 105.800 58.680 107.800 58.693 C 108.900 58.700,110.340 58.568,111.000 58.400 L 112.200 58.095 110.800 58.107 C 110.030 58.114,108.590 58.246,107.600 58.400 M121.000 58.400 C 121.660 58.568,123.100 58.703,124.200 58.699 L 126.200 58.693 124.200 58.382 C 123.100 58.210,121.660 58.076,121.000 58.082 L 119.800 58.095 121.000 58.400 M103.400 59.200 L 101.800 59.486 103.200 59.537 C 103.970 59.565,104.870 59.413,105.200 59.200 C 105.855 58.777,105.762 58.777,103.400 59.200 M128.100 59.476 C 128.485 59.576,129.115 59.576,129.500 59.476 C 129.885 59.375,129.570 59.293,128.800 59.293 C 128.030 59.293,127.715 59.375,128.100 59.476 M80.600 70.250 C 79.881 70.862,79.734 71.105,80.233 70.857 C 80.966 70.493,82.341 69.176,81.949 69.214 C 81.867 69.222,81.260 69.688,80.600 70.250 M170.806 100.233 C 170.809 100.875,170.984 101.670,171.195 102.000 C 171.455 102.409,171.499 102.090,171.332 101.000 C 171.029 99.023,170.798 98.686,170.806 100.233 M60.768 101.700 C 60.649 102.560,60.710 103.050,60.912 102.848 C 61.105 102.655,61.198 101.981,61.119 101.349 C 60.987 100.291,60.959 100.319,60.768 101.700 M171.628 104.233 C 171.644 105.095,171.809 106.160,171.996 106.600 C 172.208 107.098,172.251 106.569,172.112 105.200 C 171.844 102.565,171.589 102.057,171.628 104.233 M60.109 105.200 C 60.109 106.190,60.187 106.595,60.282 106.100 C 60.378 105.605,60.378 104.795,60.282 104.300 C 60.187 103.805,60.109 104.210,60.109 105.200 M172.566 114.800 C 172.566 118.870,172.625 120.535,172.698 118.500 C 172.771 116.465,172.771 113.135,172.698 111.100 C 172.625 109.065,172.566 110.730,172.566 114.800 M59.363 114.800 C 59.363 118.430,59.423 119.915,59.498 118.100 C 59.572 116.285,59.572 113.315,59.498 111.500 C 59.423 109.685,59.363 111.170,59.363 114.800 M171.856 123.284 C 171.721 123.788,171.631 124.830,171.655 125.600 C 171.689 126.669,171.775 126.480,172.018 124.802 C 172.353 122.492,172.272 121.733,171.856 123.284 M60.109 124.400 C 60.109 125.390,60.187 125.795,60.282 125.300 C 60.378 124.805,60.378 123.995,60.282 123.500 C 60.187 123.005,60.109 123.410,60.109 124.400 M60.768 127.900 C 60.959 129.281,60.987 129.309,61.119 128.251 C 61.198 127.619,61.105 126.945,60.912 126.752 C 60.710 126.550,60.649 127.040,60.768 127.900 M61.552 130.887 C 61.737 131.998,61.793 132.055,61.919 131.254 C 62.001 130.733,61.903 130.143,61.701 129.941 C 61.479 129.719,61.421 130.093,61.552 130.887 M129.852 169.516 C 129.744 169.690,130.273 169.761,131.028 169.673 C 131.783 169.585,132.400 169.442,132.400 169.356 C 132.400 169.055,130.045 169.203,129.852 169.516 M103.500 170.282 C 103.995 170.378,104.805 170.378,105.300 170.282 C 105.795 170.187,105.390 170.109,104.400 170.109 C 103.410 170.109,103.005 170.187,103.500 170.282 M127.105 170.283 C 127.602 170.379,128.322 170.375,128.705 170.275 C 129.087 170.175,128.680 170.096,127.800 170.101 C 126.920 170.105,126.607 170.187,127.105 170.283 M108.500 171.087 C 109.105 171.178,110.095 171.178,110.700 171.087 C 111.305 170.995,110.810 170.920,109.600 170.920 C 108.390 170.920,107.895 170.995,108.500 171.087 M122.100 171.087 C 122.705 171.178,123.695 171.178,124.300 171.087 C 124.905 170.995,124.410 170.920,123.200 170.920 C 121.990 170.920,121.495 170.995,122.100 171.087 M114.115 171.496 C 115.388 171.576,117.368 171.575,118.515 171.494 C 119.662 171.414,118.620 171.349,116.200 171.350 C 113.780 171.351,112.842 171.416,114.115 171.496 M279.712 224.295 C 280.764 224.377,282.384 224.376,283.312 224.292 C 284.240 224.208,283.380 224.141,281.400 224.142 C 279.420 224.143,278.660 224.212,279.712 224.295 M273.200 224.800 L 271.400 225.080 273.000 225.117 C 273.880 225.137,275.320 225.005,276.200 224.823 L 277.800 224.492 276.400 224.506 C 275.630 224.514,274.190 224.646,273.200 224.800 M287.000 224.823 C 287.880 225.005,289.320 225.140,290.200 225.124 C 291.767 225.094,291.759 225.087,289.800 224.782 C 286.956 224.339,284.812 224.370,287.000 224.823 M269.000 225.600 L 267.400 225.886 268.800 225.937 C 269.570 225.965,270.470 225.813,270.800 225.600 C 271.455 225.177,271.362 225.177,269.000 225.600 M292.421 225.621 C 292.955 225.960,295.942 226.181,295.567 225.855 C 295.475 225.775,294.599 225.608,293.621 225.482 C 292.470 225.335,292.046 225.384,292.421 225.621 M227.152 264.713 C 227.021 265.507,227.079 265.881,227.301 265.659 C 227.503 265.457,227.601 264.867,227.519 264.346 C 227.393 263.545,227.337 263.602,227.152 264.713 M336.400 267.176 C 336.400 267.823,336.542 268.441,336.716 268.548 C 336.890 268.656,336.961 268.127,336.873 267.372 C 336.676 265.691,336.400 265.577,336.400 267.176 M337.206 270.833 C 337.209 271.805,337.385 272.870,337.596 273.200 C 337.852 273.601,337.898 273.070,337.734 271.600 C 337.427 268.852,337.198 268.520,337.206 270.833 M225.709 271.600 C 225.709 272.590,225.787 272.995,225.882 272.500 C 225.978 272.005,225.978 271.195,225.882 270.700 C 225.787 270.205,225.709 270.610,225.709 271.600 M338.166 281.200 C 338.166 285.270,338.225 286.935,338.298 284.900 C 338.371 282.865,338.371 279.535,338.298 277.500 C 338.225 275.465,338.166 277.130,338.166 281.200 M224.963 281.200 C 224.963 284.830,225.023 286.315,225.098 284.500 C 225.172 282.685,225.172 279.715,225.098 277.900 C 225.023 276.085,224.963 277.570,224.963 281.200 M337.449 289.415 C 337.312 289.773,337.222 290.816,337.250 291.733 C 337.298 293.331,337.313 293.310,337.618 291.202 C 337.947 288.934,337.885 288.281,337.449 289.415 M225.709 290.800 C 225.709 291.790,225.787 292.195,225.882 291.700 C 225.978 291.205,225.978 290.395,225.882 289.900 C 225.787 289.405,225.709 289.810,225.709 290.800 M336.556 294.171 C 336.435 294.485,336.404 295.160,336.486 295.671 C 336.595 296.354,336.688 296.204,336.837 295.100 C 337.047 293.547,336.936 293.181,336.556 294.171 M227.102 297.400 C 227.207 297.950,227.362 298.400,227.447 298.400 C 227.531 298.400,227.600 297.950,227.600 297.400 C 227.600 296.850,227.445 296.400,227.255 296.400 C 227.066 296.400,226.997 296.850,227.102 297.400 M295.452 335.916 C 295.344 336.090,295.873 336.161,296.628 336.073 C 297.383 335.985,298.000 335.842,298.000 335.756 C 298.000 335.455,295.645 335.603,295.452 335.916 M269.100 336.682 C 269.595 336.778,270.405 336.778,270.900 336.682 C 271.395 336.587,270.990 336.509,270.000 336.509 C 269.010 336.509,268.605 336.587,269.100 336.682 M292.705 336.683 C 293.202 336.779,293.922 336.775,294.305 336.675 C 294.687 336.575,294.280 336.496,293.400 336.501 C 292.520 336.505,292.207 336.587,292.705 336.683 M277.302 337.742 C 279.847 337.953,283.522 337.950,286.302 337.735 C 290.764 337.391,290.547 337.373,282.000 337.379 C 273.751 337.384,273.359 337.415,277.302 337.742 " stroke="none" fill="#1f1c04" fill-rule="evenodd"></path><path id="path4" d="M113.900 171.096 C 115.275 171.174,117.525 171.174,118.900 171.096 C 120.275 171.018,119.150 170.954,116.400 170.954 C 113.650 170.954,112.525 171.018,113.900 171.096 M280.300 337.489 C 281.015 337.578,282.185 337.578,282.900 337.489 C 283.615 337.401,283.030 337.328,281.600 337.328 C 280.170 337.328,279.585 337.401,280.300 337.489 " stroke="none" fill="#2c2404" fill-rule="evenodd"></path></g></svg>